<svg width="1440" height="626" viewBox="0 0 1440 626" fill="none" xmlns="http://www.w3.org/2000/svg">
<g clip-path="url(#clip0)">
<path fill-rule="evenodd" clip-rule="evenodd" d="M1409.77 354.641L1443.69 177.649C1472.95 194.176 1507.35 215.995 1546.5 244.14C1659.96 325.719 1488.89 151.105 1456.92 108.628L1458.64 99.631C1462.66 99.6993 1466.68 99.8703 1470.7 100.136C1471.93 100.212 1473.16 100.311 1474.39 100.405C1474.66 100.427 1474.93 100.442 1475.2 100.465C1499.4 102.414 1523.68 108.021 1547.12 117.624C1660.69 164.143 1711.75 286.572 1661.18 391.078C1656.1 401.566 1649.26 409.33 1641.03 414.98C1638.75 409.307 1636.07 403.773 1633.03 398.41L1630.33 393.849L1627.38 389.412L1626.64 388.303L1625.85 387.228L1624.26 385.078L1622.66 382.929L1620.97 380.849L1618.41 377.736C1618.12 377.391 1617.81 377.066 1617.51 376.731L1613.89 372.736C1611.35 370.177 1608.87 367.569 1606.15 365.178L1604.15 363.345L1603.65 362.887L1603.13 362.451L1602.09 361.578C1600.69 360.421 1599.33 359.235 1597.92 358.096L1593.6 354.784L1592.52 353.957L1591.4 353.179L1589.16 351.62L1586.91 350.061C1586.15 349.555 1585.37 349.086 1584.59 348.596L1582.26 347.145L1581.09 346.419L1580.51 346.058L1579.91 345.722L1575.07 343.051C1574.66 342.833 1574.26 342.6 1573.85 342.394L1572.6 341.788L1570.09 340.579L1567.58 339.376C1566.73 338.988 1565.86 338.646 1565 338.28C1563.28 337.569 1561.57 336.821 1559.82 336.148L1554.53 334.246L1553.21 333.771L1551.86 333.355L1549.16 332.531L1546.47 331.71C1545.57 331.426 1544.65 331.23 1543.74 330.986C1541.91 330.528 1540.09 330.037 1538.26 329.606L1532.73 328.456L1531.34 328.168L1529.95 327.941L1527.16 327.487L1524.37 327.03C1523.43 326.893 1522.5 326.803 1521.56 326.688L1518.75 326.362C1517.81 326.264 1516.87 326.122 1515.93 326.076L1510.28 325.686C1509.33 325.601 1508.39 325.614 1507.44 325.583L1504.61 325.518C1503.66 325.504 1502.72 325.457 1501.78 325.471L1498.94 325.533L1496.11 325.596C1495.64 325.612 1495.16 325.609 1494.69 325.638L1493.28 325.732L1487.62 326.114L1481.99 326.741C1474.51 327.706 1467.08 329.067 1459.79 330.961C1452.53 332.907 1445.4 335.328 1438.52 338.257C1428.3 342.705 1418.65 348.201 1409.77 354.641ZM1408.9 359.158L1409.15 357.838L1409.58 357.516C1409.94 357.239 1410.31 356.97 1410.69 356.719L1415.2 353.626C1415.93 353.093 1416.73 352.636 1417.5 352.143L1419.82 350.686C1420.6 350.207 1421.35 349.694 1422.15 349.244L1424.54 347.888C1426.13 346.994 1427.7 346.047 1429.36 345.246C1431 344.418 1432.62 343.566 1434.28 342.763L1439.31 340.483C1446.09 337.573 1453.09 335.111 1460.25 333.117C1467.45 331.187 1474.78 329.717 1482.19 328.717L1487.77 328.066L1493.37 327.664L1494.78 327.567C1495.24 327.535 1495.71 327.538 1496.18 327.523L1498.99 327.455L1501.8 327.392C1502.74 327.382 1503.67 327.428 1504.61 327.443L1507.42 327.512C1508.35 327.541 1509.29 327.535 1510.22 327.619L1515.83 328.005L1516.53 328.054L1517.23 328.133L1518.62 328.292L1521.41 328.612C1522.34 328.727 1523.27 328.804 1524.2 328.952L1526.96 329.398L1529.73 329.845C1530.19 329.922 1530.66 329.987 1531.11 330.075L1532.49 330.363L1537.96 331.514C1541.57 332.457 1545.2 333.305 1548.72 334.487C1552.29 335.525 1555.75 336.87 1559.24 338.12C1560.95 338.815 1562.66 339.54 1564.37 340.246L1565.65 340.78C1566.08 340.953 1566.5 341.136 1566.92 341.341L1569.42 342.525L1571.92 343.71C1572.33 343.911 1572.76 344.098 1573.16 344.311L1574.38 344.961L1579.24 347.565C1582.38 349.451 1585.57 351.267 1588.55 353.363C1590.05 354.385 1591.58 355.374 1593.01 356.492C1594.45 357.586 1595.91 358.659 1597.33 359.772L1601.47 363.238L1602.5 364.106L1603.49 365.02L1605.46 366.845C1610.67 371.75 1615.56 376.946 1619.91 382.533C1621.06 383.887 1622.07 385.336 1623.12 386.753L1624.7 388.888C1625.23 389.595 1625.69 390.348 1626.19 391.076L1627.65 393.279C1628.13 394.017 1628.65 394.733 1629.09 395.498L1631.79 400.027C1634.71 405.203 1637.28 410.542 1639.48 416.012L1639.2 416.193L1637.94 413.213C1637.62 412.408 1637.21 411.636 1636.84 410.851L1635.7 408.505C1635.32 407.728 1634.97 406.933 1634.55 406.17L1633.29 403.877C1632.45 402.354 1631.66 400.804 1630.71 399.329C1629.8 397.842 1628.91 396.338 1627.97 394.86L1625.04 390.497C1621.02 384.744 1616.61 379.209 1611.79 373.977C1606.9 368.806 1601.6 363.958 1595.91 359.536L1591.56 356.323L1591.01 355.923L1590.44 355.547L1589.31 354.797L1587.04 353.302C1586.28 352.81 1585.54 352.291 1584.77 351.824L1582.42 350.438L1580.07 349.054L1578.9 348.365L1577.69 347.729L1572.85 345.185C1571.21 344.382 1569.54 343.631 1567.89 342.85C1567.05 342.473 1566.25 342.053 1565.39 341.709L1562.85 340.662L1560.31 339.61L1559.04 339.084L1557.75 338.613L1556.59 338.195C1555.88 337.93 1555.16 337.668 1554.44 337.414L1552.52 336.716C1551.36 336.318 1550.18 335.955 1549 335.589L1548.12 335.312C1547.82 335.219 1547.51 335.125 1547.21 335.029C1546.33 334.76 1545.45 334.454 1544.55 334.214L1541.85 333.503L1539.15 332.79C1538.7 332.674 1538.25 332.548 1537.79 332.438L1536.43 332.144L1530.95 330.971C1529.11 330.647 1527.26 330.353 1525.42 330.046C1523.58 329.703 1521.71 329.536 1519.85 329.31L1517.06 328.986C1516.6 328.928 1516.13 328.887 1515.67 328.862L1514.26 328.767C1506.8 328.137 1499.28 328.205 1491.82 328.722C1489.8 328.833 1487.78 329.032 1485.77 329.261C1475.24 330.357 1464.87 332.5 1454.85 335.653C1454.37 335.793 1453.89 335.931 1453.42 336.075L1448.14 337.87C1441.16 340.394 1450.2 389.157 1443.71 392.628C1437.25 396.145 1415.27 354.368 1409.46 358.727L1408.9 359.158ZM1450.37 417.342C1449.99 417.354 1449.6 417.368 1449.21 417.384C1450.72 415.65 1451.64 414.943 1451.88 415.464L1450.37 417.342Z" fill="url(#paint0_linear)"/>
<mask id="mask0" mask-type="alpha" maskUnits="userSpaceOnUse" x="1010" y="-257" width="699" height="633">
<path d="M1649.39 233.654C1649.16 233.997 1648.91 234.339 1648.66 234.674C1648.91 234.337 1649.15 233.993 1649.39 233.654H1649.39ZM1022.43 58.7209C991.917 81.3805 1028.98 129.114 1041 161.258C1041.13 161.616 1041.28 161.968 1041.41 162.325C1042.03 163.955 1042.64 165.588 1043.29 167.206C1046.41 175.165 1049.88 183.003 1053.69 190.702C1062.91 209.334 1158.57 23.7504 1087.68 244.693C1016.79 465.635 1191.53 162.394 1207.45 176.067C1223.38 189.724 1165.12 316.834 1183.87 327.656C1203.37 338.846 1222.54 347.176 1240.61 353.589C1242.87 354.39 1245.08 355.244 1247.31 355.975L1253.95 358.049C1258.33 359.397 1262.56 360.839 1266.81 361.876L1273.84 363.745C1276.18 364.341 1278.48 365.049 1280.84 365.509L1294.82 368.544C1313.51 372.103 1331.92 374.129 1349.73 375.001L1362.99 375.367C1365.09 375.471 1367.13 375.347 1369.15 375.335L1375.08 375.232C1382.9 375.258 1390.31 374.568 1398.19 374.16C1400.13 374.086 1402.05 373.816 1403.99 373.628L1409.8 373.013C1413.68 372.598 1417.59 372.253 1421.45 371.586L1433.11 369.8C1436.99 369.127 1440.84 368.272 1444.72 367.509L1450.49 366.338C1452.41 365.901 1454.32 365.383 1456.25 364.903C1460.11 363.915 1464 362.954 1467.84 361.924L1479.07 358.464C1480.91 357.873 1482.76 357.377 1484.51 356.722L1489.72 354.831C1516.9 345.001 1535.86 334.7 1549.9 326.525L1554.86 323.602C1556.47 322.665 1558.03 321.755 1559.47 320.781L1567.71 315.452L1571.43 313.046C1572.58 312.224 1573.7 311.433 1574.77 310.67C1576.92 309.145 1387.33 204.84 1389.17 203.541C1404.1 192.704 1610.49 283.161 1624.43 268.801L1629.61 263.36C1630.47 262.436 1631.38 261.552 1632.19 260.589L1634.66 257.722L1639.04 252.628C1640.47 250.931 1641.97 249.295 1643.27 247.541L1651.07 237.509C1653.54 234.153 1655.84 230.756 1658.17 227.458C1667.2 214.079 1674.92 201.042 1680.85 188.423L1683.14 183.771C1683.93 182.249 1684.51 180.664 1685.19 179.138L1689.05 170.106C1689.36 169.368 1689.69 168.643 1689.97 167.903L1690.78 165.69L1692.36 161.337C1693.39 158.464 1694.44 155.674 1695.38 152.925C1697.04 147.375 1698.72 142.139 1700.1 137.155L1703.54 123.029C1705.18 114.152 1706.72 106.589 1707.32 100.345L1708.3 92.0931C1708.54 89.7041 1708.59 87.6705 1708.69 86.0323C1708.84 82.7495 1708.86 81.0103 1708.73 80.9283C1708.6 80.8453 1708.33 82.4214 1707.93 85.5297L1707.22 91.3255L1705.91 99.2884L1705.14 104.063L1704.73 106.645C1704.57 107.524 1704.36 108.417 1704.17 109.334C1703.39 113.001 1702.54 117 1701.63 121.318C1700.61 125.615 1699.3 130.185 1698.03 135.077C1697.44 137.534 1696.58 140.006 1695.77 142.566L1693.23 150.454C1693.02 151.13 1692.8 151.81 1692.58 152.495C1692.32 153.169 1692.07 153.848 1691.81 154.531L1690.24 158.674C1689.18 161.469 1688.09 164.33 1686.98 167.258L1683.09 176.067L1681.09 180.611C1680.42 182.146 1679.59 183.633 1678.84 185.169L1674.13 194.515C1672.46 197.655 1670.59 200.78 1668.78 204L1666.02 208.857C1665 210.46 1663.98 212.064 1662.96 213.668C1661.93 215.285 1660.89 216.913 1659.84 218.556C1658.78 220.187 1657.8 221.883 1656.61 223.48L1653.89 227.315C1687.54 178.569 1707.04 120.742 1707.04 58.7209C1707.04 -115.205 1553.78 -256.201 1364.73 -256.201C1175.68 -256.201 1280.84 -133.176 1022.43 58.7209Z" fill="white"/>
</mask>
<g mask="url(#mask0)">
<path d="M1649.39 233.654C1649.16 233.997 1648.91 234.339 1648.66 234.674C1648.91 234.337 1649.15 233.993 1649.39 233.654H1649.39ZM1022.43 58.7209C991.917 81.3805 1028.98 129.114 1041 161.258C1041.13 161.616 1041.28 161.968 1041.41 162.325C1042.03 163.955 1042.64 165.588 1043.29 167.206C1046.41 175.165 1049.88 183.003 1053.69 190.702C1062.91 209.334 1158.57 23.7504 1087.68 244.693C1016.79 465.635 1191.53 162.394 1207.45 176.067C1223.38 189.724 1165.12 316.834 1183.87 327.656C1203.37 338.846 1222.54 347.176 1240.61 353.589C1242.87 354.39 1245.08 355.244 1247.31 355.975L1253.95 358.049C1258.33 359.397 1262.56 360.839 1266.81 361.876L1273.84 363.745C1276.18 364.341 1278.48 365.049 1280.84 365.509L1294.82 368.544C1313.51 372.103 1331.92 374.129 1349.73 375.001L1362.99 375.367C1365.09 375.471 1367.13 375.347 1369.15 375.335L1375.08 375.232C1382.9 375.258 1390.31 374.568 1398.19 374.16C1400.13 374.086 1402.05 373.816 1403.99 373.628L1409.8 373.013C1413.68 372.598 1417.59 372.253 1421.45 371.586L1433.11 369.8C1436.99 369.127 1440.84 368.272 1444.72 367.509L1450.49 366.338C1452.41 365.901 1454.32 365.383 1456.25 364.903C1460.11 363.915 1464 362.954 1467.84 361.924L1479.07 358.464C1480.91 357.873 1482.76 357.377 1484.51 356.722L1489.72 354.831C1516.9 345.001 1535.86 334.7 1549.9 326.525L1554.86 323.602C1556.47 322.665 1558.03 321.755 1559.47 320.781L1567.71 315.452L1571.43 313.046C1572.58 312.224 1573.7 311.433 1574.77 310.67C1576.92 309.145 1387.33 204.84 1389.17 203.541C1404.1 192.704 1610.49 283.161 1624.43 268.801L1629.61 263.36C1630.47 262.436 1631.38 261.552 1632.19 260.589L1634.66 257.722L1639.04 252.628C1640.47 250.931 1641.97 249.295 1643.27 247.541L1651.07 237.509C1653.54 234.153 1655.84 230.756 1658.17 227.458C1667.2 214.079 1674.92 201.042 1680.85 188.423L1683.14 183.771C1683.93 182.249 1684.51 180.664 1685.19 179.138L1689.05 170.106C1689.36 169.368 1689.69 168.643 1689.97 167.903L1690.78 165.69L1692.36 161.337C1693.39 158.464 1694.44 155.674 1695.38 152.925C1697.04 147.375 1698.72 142.139 1700.1 137.155L1703.54 123.029C1705.18 114.152 1706.72 106.589 1707.32 100.345L1708.3 92.0931C1708.54 89.7041 1708.59 87.6705 1708.69 86.0323C1708.84 82.7495 1708.86 81.0103 1708.73 80.9283C1708.6 80.8453 1708.33 82.4214 1707.93 85.5297L1707.22 91.3255L1705.91 99.2884L1705.14 104.063L1704.73 106.645C1704.57 107.524 1704.36 108.417 1704.17 109.334C1703.39 113.001 1702.54 117 1701.63 121.318C1700.61 125.615 1699.3 130.185 1698.03 135.077C1697.44 137.534 1696.58 140.006 1695.77 142.566L1693.23 150.454C1693.02 151.13 1692.8 151.81 1692.58 152.495C1692.32 153.169 1692.07 153.848 1691.81 154.531L1690.24 158.674C1689.18 161.469 1688.09 164.33 1686.98 167.258L1683.09 176.067L1681.09 180.611C1680.42 182.146 1679.59 183.633 1678.84 185.169L1674.13 194.515C1672.46 197.655 1670.59 200.78 1668.78 204L1666.02 208.857C1665 210.46 1663.98 212.064 1662.96 213.668C1661.93 215.285 1660.89 216.913 1659.84 218.556C1658.78 220.187 1657.8 221.883 1656.61 223.48L1653.89 227.315C1687.54 178.569 1707.04 120.742 1707.04 58.7209C1707.04 -115.205 1553.78 -256.201 1364.73 -256.201C1175.68 -256.201 1280.84 -133.176 1022.43 58.7209Z" fill="url(#paint1_linear)"/>
<path fill-rule="evenodd" clip-rule="evenodd" d="M1115.96 271.8C1115.96 271.393 1115.96 270.986 1115.96 270.579C1115.95 270.986 1115.95 271.394 1115.96 271.8H1115.96ZM1529.7 161.347C1597.41 257.268 1567.76 385.534 1463.48 447.838C1359.2 510.143 1219.77 482.891 1152.07 386.971C1127.92 352.766 1116.17 314.449 1115.75 276.475L1115.74 279.486C1115.71 280.758 1115.83 282.016 1115.88 283.268L1116.06 286.99C1116.12 288.22 1116.19 289.442 1116.25 290.652L1116.61 294.242C1116.87 296.613 1117.05 298.953 1117.35 301.235L1118.39 307.943C1118.58 309.037 1118.7 310.131 1118.93 311.195C1119.15 312.263 1119.37 313.318 1119.59 314.362L1120.88 320.502L1122.42 326.311L1123.16 329.115L1123.54 330.489L1123.97 331.83L1125.64 337.016C1126.19 338.697 1126.68 340.344 1127.31 341.893C1128.51 345.008 1129.57 347.96 1130.68 350.666L1133.94 358.112C1134.2 358.68 1134.43 359.242 1134.68 359.779L1135.46 361.339L1136.9 364.225L1139.27 369.049L1141.14 372.479C1142.13 374.325 1142.59 375.283 1142.49 375.28C1142.39 375.278 1141.72 374.313 1140.52 372.452C1139.94 371.516 1139.17 370.381 1138.38 368.983L1135.71 364.106C1133.61 360.468 1131.51 355.789 1128.96 350.352L1125.36 341.428C1124.18 338.225 1123.07 334.784 1121.82 331.176C1121.27 329.351 1120.76 327.466 1120.21 325.542L1119.39 322.619L1118.98 321.131C1118.84 320.631 1118.75 320.121 1118.63 319.613C1118.17 317.573 1117.71 315.489 1117.24 313.361C1117.02 312.294 1116.72 311.229 1116.57 310.129C1116.38 309.033 1116.2 307.927 1116.02 306.811C1114.38 297.894 1113.56 288.16 1113.33 277.808C1113.34 275.219 1113.28 272.59 1113.34 269.924L1113.73 261.823C1113.77 260.425 1113.96 259.03 1114.09 257.62L1114.52 253.369L1114.77 250.973C1114.84 250.174 1115 249.388 1115.11 248.596C1115.36 247.017 1115.61 245.443 1115.85 243.885C1117.95 231.372 1267.01 213.239 1271.03 202.343C1271.54 201.021 1126.35 205.981 1126.94 204.431L1127.86 202.018L1128.98 199.466C1129.75 197.705 1130.57 195.823 1131.45 193.812C1131.86 192.8 1132.37 191.783 1132.89 190.737L1134.49 187.49C1139.05 178.353 1145.5 166.423 1156.67 152.044L1158.81 149.286C1159.52 148.346 1160.34 147.463 1161.13 146.533L1165.98 140.921C1167.69 139.088 1169.47 137.277 1171.21 135.461C1172.09 134.56 1172.94 133.643 1173.83 132.769L1176.55 130.224C1178.4 128.524 1180.19 126.784 1182.07 125.134L1187.8 120.307C1189.68 118.664 1191.7 117.187 1193.67 115.68L1196.64 113.425C1197.64 112.683 1198.59 111.9 1199.63 111.221C1203.82 108.4 1207.64 105.576 1211.96 103.014L1215.2 101C1216.3 100.33 1217.38 99.587 1218.58 98.954L1226.04 94.7859C1236.2 89.396 1247.15 84.4466 1258.84 80.2501L1267.73 77.3164C1269.21 76.7907 1270.76 76.4237 1272.28 75.9811L1276.88 74.6972C1279.63 73.8686 1282.53 73.2693 1285.47 72.569L1289.94 71.5227C1291.46 71.1915 1293.01 70.936 1294.56 70.6321C1307.03 68.2116 1320.85 66.4882 1335.96 66.2337C1350.52 66.0213 1367.86 155.327 1381.96 157.606C1396.07 159.902 1374.41 -64.925 1421.31 80.2879C1468.22 225.5 1448.74 91.6251 1461.08 98.8625C1466.17 101.838 1471.13 105.023 1475.97 108.39C1476.95 109.07 1477.93 109.769 1478.9 110.465C1479.11 110.618 1479.33 110.764 1479.54 110.918C1498.69 124.682 1515.73 141.548 1529.7 161.347Z" fill="url(#paint2_linear)"/>
<path fill-rule="evenodd" clip-rule="evenodd" d="M1310.25 -140.384C1310.26 -140.791 1310.25 -141.198 1310.26 -141.605C1310.25 -141.198 1310.25 -140.79 1310.25 -140.384H1310.25ZM1724 -250.837C1791.71 -154.917 1762.06 -26.6507 1657.78 35.6533C1553.5 97.9583 1462.03 -154.565 1346.36 -25.2133C1317.75 6.77933 1310.46 -97.7357 1310.05 -135.709L1310.04 -132.699C1310.01 -131.426 1310.13 -130.168 1310.17 -128.917L1310.36 -125.194C1310.42 -123.964 1310.48 -122.742 1310.54 -121.532L1310.91 -117.942C1311.16 -115.571 1311.35 -113.231 1311.65 -110.95L1312.69 -104.241C1312.87 -103.148 1312.99 -102.053 1313.23 -100.989C1313.45 -99.9217 1313.67 -98.866 1313.89 -97.8219L1315.17 -91.6822L1316.72 -85.8738L1317.46 -83.0695L1317.83 -81.6952L1318.27 -80.3545L1319.94 -75.1686C1320.48 -73.4872 1320.97 -71.8406 1321.61 -70.2918C1322.81 -67.1762 1323.87 -64.2247 1324.98 -61.5181L1328.24 -54.0725C1328.49 -53.5047 1328.72 -52.9422 1328.98 -52.4049L1329.76 -50.8455L1331.19 -47.9591L1333.57 -43.1349L1335.43 -39.705C1336.42 -37.8596 1336.89 -36.9017 1336.78 -36.9038C1336.68 -36.9059 1336.01 -37.8712 1334.82 -39.7323C1334.24 -40.6681 1333.47 -41.8037 1332.67 -43.2011L1330 -48.078C1327.9 -51.7161 1325.81 -56.3953 1323.26 -61.8325L1319.66 -70.7565C1318.48 -73.9594 1317.36 -77.3998 1316.12 -81.0085C1315.57 -82.8329 1315.06 -84.7182 1314.51 -86.6424L1313.69 -89.5656L1313.27 -91.0534C1313.14 -91.5529 1313.04 -92.0629 1312.92 -92.5718C1312.47 -94.6117 1312.01 -96.6957 1311.54 -98.8229C1311.32 -99.8902 1311.02 -100.955 1310.86 -102.055C1310.68 -103.151 1310.5 -104.257 1310.31 -105.374C1308.68 -114.29 1307.86 -124.024 1307.63 -134.376C1307.63 -136.966 1307.58 -139.594 1307.63 -142.26L1308.03 -150.362C1308.06 -151.759 1308.25 -153.154 1308.39 -154.565L1308.82 -158.816L1309.06 -161.211C1309.14 -162.01 1309.3 -162.797 1309.41 -163.588C1309.66 -165.168 1309.9 -166.741 1310.15 -168.299C1312.25 -180.812 1461.31 -198.945 1465.33 -209.841C1465.83 -211.163 1320.65 -206.203 1321.24 -207.753L1322.16 -210.166L1323.27 -212.718C1324.04 -214.479 1324.87 -216.362 1325.74 -218.372C1326.16 -219.385 1326.67 -220.401 1327.19 -221.448L1328.79 -224.695C1333.35 -233.831 1339.8 -245.761 1350.97 -260.14L1353.1 -262.899C1353.82 -263.839 1354.64 -264.721 1355.42 -265.651L1360.27 -271.263C1361.99 -273.096 1363.76 -274.908 1365.5 -276.724C1366.38 -277.625 1367.24 -278.542 1368.13 -279.415L1370.85 -281.96C1372.69 -283.66 1374.48 -285.4 1376.36 -287.05L1382.1 -291.878C1383.97 -293.52 1385.99 -294.997 1387.97 -296.504L1390.94 -298.76C1391.93 -299.501 1392.89 -300.284 1393.93 -300.964C1398.12 -303.785 1401.93 -306.608 1406.26 -309.17L1409.49 -311.184C1410.6 -311.854 1411.68 -312.597 1412.88 -313.23L1420.33 -317.398C1430.5 -322.788 1441.44 -327.738 1453.14 -331.934L1462.03 -334.868C1463.51 -335.394 1465.06 -335.761 1466.58 -336.203L1471.18 -337.487C1473.93 -338.316 1476.82 -338.915 1479.77 -339.615L1484.24 -340.661C1485.75 -340.993 1487.3 -341.248 1488.86 -341.552C1501.33 -343.973 1515.15 -345.696 1530.26 -345.951C1544.81 -346.163 1562.15 -256.858 1576.26 -254.578C1590.36 -252.283 1568.7 -477.109 1615.61 -331.896C1662.52 -186.684 1643.04 -320.559 1655.38 -313.322C1660.46 -310.346 1665.43 -307.161 1670.26 -303.794C1671.25 -303.114 1672.22 -302.416 1673.2 -301.72C1673.41 -301.566 1673.63 -301.42 1673.84 -301.266C1692.99 -287.502 1710.03 -270.636 1724 -250.837Z" fill="url(#paint3_linear)"/>
</g>
<path fill-rule="evenodd" clip-rule="evenodd" d="M936.511 54.5842L929.177 50.5081C926.697 49.2013 924.383 47.6554 922.003 46.2045C919.638 44.7321 917.239 43.3022 914.989 41.6797C912.711 40.0959 910.407 38.5407 908.148 36.9326L901.558 31.8906L899.912 30.6292L898.333 29.2944L895.179 26.6239L892.026 23.9506C890.997 23.0396 890.016 22.0828 889.008 21.1503L886.003 18.3369C885.006 17.3941 883.973 16.4827 883.045 15.4835L877.331 9.60488C876.848 9.12126 876.385 8.62008 875.944 8.1026L874.595 6.57191L871.894 3.51098C871.009 2.48011 870.058 1.49489 869.228 0.424899L866.69 -2.75201C863.216 -6.9319 860.154 -11.3779 857.02 -15.7783L852.644 -22.5702C851.892 -23.69 851.23 -24.858 850.567 -26.0246L848.564 -29.5195C847.903 -30.6884 847.216 -31.8449 846.576 -33.024L844.757 -36.6027L842.94 -40.1832C842.641 -40.782 842.324 -41.3735 842.04 -41.9774L841.225 -43.8053L837.966 -51.1189L977.918 -202.377C974.278 -212.37 793.378 45.3339 791.329 34.9515C789.402 24.5491 823.434 -110.086 823.101 -120.633L823.041 -128.548C823.085 -131.186 823.262 -133.821 823.366 -136.458C823.429 -139.099 823.738 -141.724 823.999 -144.354C824.272 -146.983 824.476 -149.618 824.943 -152.227C826.332 -162.721 828.998 -173.066 832.288 -183.199L833.569 -186.989C834.007 -188.249 834.392 -189.524 834.918 -190.758L837.879 -198.207C838.342 -199.459 838.945 -200.661 839.492 -201.882L841.162 -205.534L842.827 -209.186L844.678 -212.759L846.517 -216.334C847.14 -217.522 847.705 -218.736 848.405 -219.887L852.414 -226.877C853.054 -228.057 853.792 -229.186 854.522 -230.318L856.699 -233.724L858.875 -237.134C859.634 -238.25 860.439 -239.339 861.22 -240.445C867.347 -249.359 874.42 -257.726 882.175 -265.551L885.113 -268.463L886.586 -269.916C887.087 -270.392 887.615 -270.841 888.129 -271.305L894.356 -276.819C898.693 -280.307 902.979 -283.856 907.593 -287.033L910.999 -289.476C911.561 -289.889 912.141 -290.283 912.736 -290.656L914.499 -291.8L918.026 -294.09L919.788 -295.235C920.368 -295.626 920.964 -295.996 921.575 -296.345L928.835 -300.628C930.027 -301.369 931.298 -301.99 932.532 -302.666L936.252 -304.664C937.5 -305.318 938.714 -306.027 939.986 -306.637L943.8 -308.474C946.353 -309.683 948.859 -310.974 951.489 -312.034C954.098 -313.136 956.686 -314.277 959.31 -315.343L967.285 -318.326C978.011 -322.103 989.016 -325.172 1000.22 -327.51C1011.46 -329.744 1022.86 -331.262 1034.33 -332.053L1042.95 -332.493L1051.58 -332.548L1053.74 -332.558C1054.46 -332.56 1055.17 -332.509 1055.89 -332.486L1060.21 -332.308L1064.52 -332.125C1065.95 -332.047 1067.38 -331.884 1068.81 -331.767L1073.11 -331.382C1074.54 -331.243 1075.98 -331.159 1077.4 -330.938L1085.94 -329.789L1087 -329.645L1088.06 -329.455L1090.18 -329.072L1094.42 -328.305C1095.83 -328.036 1097.25 -327.824 1098.64 -327.508L1102.83 -326.549L1107.02 -325.589C1107.72 -325.424 1108.42 -325.281 1109.11 -325.098L1111.18 -324.522L1119.44 -322.215C1124.85 -320.413 1130.33 -318.753 1135.58 -316.596C1140.93 -314.652 1146.07 -312.25 1151.27 -309.988C1153.82 -308.755 1156.35 -307.479 1158.88 -306.225L1160.79 -305.282C1161.42 -304.974 1162.05 -304.651 1162.66 -304.297L1166.36 -302.237L1170.05 -300.174C1170.67 -299.825 1171.29 -299.498 1171.89 -299.131L1173.68 -298.016L1180.83 -293.548C1185.42 -290.349 1190.1 -287.253 1194.42 -283.75C1196.61 -282.038 1198.84 -280.372 1200.89 -278.52C1202.97 -276.705 1205.08 -274.916 1207.13 -273.073L1213.08 -267.359L1214.56 -265.925L1215.96 -264.429L1218.77 -261.441C1226.19 -253.421 1233.09 -244.984 1239.11 -236.004C1240.71 -233.819 1242.09 -231.502 1243.55 -229.227L1245.71 -225.805C1246.45 -224.67 1247.06 -223.473 1247.74 -222.309L1249.73 -218.796C1250.38 -217.618 1251.1 -216.47 1251.68 -215.257L1255.3 -208.059C1259.88 -198.369 1263.68 -188.382 1266.66 -178.177C1268.94 -169.993 1270.64 -161.681 1271.76 -153.295L1271.24 -156.622L1270.94 -158.577L1270.78 -159.554L1270.58 -160.523L1269.75 -164.399C1269.19 -166.98 1268.67 -169.571 1267.91 -172.111C1267.19 -174.656 1266.54 -177.219 1265.74 -179.745L1263.2 -187.278C1262.81 -188.541 1262.27 -189.761 1261.79 -190.999L1260.32 -194.7C1259.81 -195.928 1259.37 -197.179 1258.81 -198.389L1257.16 -202.02C1256.03 -204.434 1255.01 -206.887 1253.73 -209.235C1252.49 -211.602 1251.31 -213.99 1250.04 -216.344L1246.05 -223.312C1240.55 -232.512 1234.44 -241.419 1227.66 -249.901C1220.76 -258.299 1213.2 -266.242 1204.99 -273.574L1198.69 -278.924L1197.89 -279.59L1197.07 -280.221L1195.42 -281.481L1192.12 -283.996C1191.01 -284.822 1189.94 -285.691 1188.8 -286.484L1185.36 -288.836L1181.93 -291.186L1180.21 -292.358L1178.43 -293.453L1171.31 -297.826C1168.89 -299.217 1166.42 -300.533 1163.98 -301.892C1162.75 -302.552 1161.55 -303.275 1160.29 -303.885L1156.52 -305.742L1152.74 -307.603L1150.86 -308.537L1148.93 -309.384L1147.21 -310.139C1146.15 -310.617 1145.08 -311.087 1144.01 -311.548L1141.15 -312.808C1139.41 -313.532 1137.64 -314.206 1135.88 -314.882C1135.44 -315.054 1135 -315.225 1134.56 -315.393C1134.11 -315.566 1133.66 -315.739 1133.21 -315.916C1131.88 -316.417 1130.57 -316.974 1129.22 -317.429L1125.16 -318.787L1121.1 -320.145C1120.43 -320.368 1119.76 -320.605 1119.07 -320.82L1117.01 -321.405L1108.76 -323.746C1105.98 -324.425 1103.18 -325.057 1100.39 -325.712C1097.61 -326.419 1094.77 -326.861 1091.95 -327.394L1087.71 -328.164C1087.01 -328.306 1086.3 -328.404 1085.59 -328.495L1083.45 -328.781C1072.09 -330.488 1060.56 -331.134 1049.07 -331.086C1045.96 -331.118 1042.85 -331.015 1039.75 -330.865C1023.49 -330.239 1007.36 -327.995 991.638 -324.171C990.895 -324.002 990.149 -323.84 989.409 -323.665L981.113 -321.446C970.122 -318.283 978.371 -242.789 968.033 -238.126C957.73 -233.39 928.866 -299.486 919.456 -293.398L912.493 -288.712L905.778 -283.729C905.221 -283.311 904.654 -282.904 904.104 -282.479L902.493 -281.159L899.272 -278.522L896.049 -275.886L893.118 -273.243C892.241 -272.465 891.372 -271.678 890.506 -270.885L889.893 -270.331L888.357 -268.941C887.903 -268.516 887.472 -268.069 887.032 -267.631C872.114 -253.341 859.188 -236.828 848.905 -218.261C792.626 -116.642 836.543 7.71174 946.997 59.4893C995.925 82.4249 1049.7 87.2594 1099.32 76.7115C1105.53 75.457 1111.7 73.9718 1117.79 72.234C1128.51 69.0857 1138.99 65.2605 1149.11 60.8793C1159.16 56.4472 1091.95 6.57148 1178.23 45.4011L1185.14 40.91C1187.4 39.3598 1189.59 37.7297 1191.82 36.1464L1193.49 34.9509L1194.32 34.3529L1195.12 33.7199L1198.32 31.1897C1200.44 29.4918 1202.63 27.8687 1204.62 26.0581L1210.89 20.6187L1216.86 14.9548L1218.35 13.5417C1218.84 13.0646 1219.3 12.5627 1219.77 12.0736L1222.6 9.12327L1225.42 6.17521C1226.37 5.19618 1227.21 4.13834 1228.11 3.12417C1235.39 -4.95147 1241.75 -13.7229 1247.57 -22.9886C1248.97 -25.3395 1250.43 -27.6688 1251.8 -30.0439L1255.66 -37.279L1256.63 -39.0879L1257.5 -40.9394L1259.24 -44.6451L1260.97 -48.3541C1261.55 -49.5911 1262.01 -50.8702 1262.53 -52.1278C1266.81 -62.1576 1269.99 -72.5807 1272.42 -83.135L1273.3 -87.1086L1273.74 -89.0995L1274.07 -91.108L1275.36 -99.1568L1276.21 -107.267L1276.42 -109.298C1276.47 -109.977 1276.49 -110.656 1276.53 -111.335L1276.72 -115.408L1276.92 -119.482C1276.94 -120.842 1276.91 -122.202 1276.91 -123.561L1276.89 -127.636L1276.89 -129.675C1276.87 -130.353 1276.82 -131.03 1276.78 -131.709L1276.34 -139.838L1275.51 -147.925C1274.21 -158.679 1272.07 -169.333 1269.11 -179.805C1266.02 -190.256 1262.1 -200.485 1257.39 -210.408L1253.77 -217.654L1249.76 -224.736L1248.76 -226.505L1247.67 -228.229L1245.48 -231.677L1243.28 -235.124L1240.92 -238.473L1238.55 -241.818L1237.36 -243.49C1236.96 -244.045 1236.52 -244.573 1236.1 -245.117L1231.02 -251.589C1227.42 -255.757 1223.91 -259.993 1220.02 -263.923L1217.17 -266.924L1216.46 -267.676L1215.71 -268.395L1214.21 -269.833C1212.21 -271.742 1210.26 -273.692 1208.23 -275.575C1206.15 -277.409 1204.07 -279.24 1202 -281.073L1200.43 -282.443L1198.81 -283.747L1195.55 -286.355L1192.29 -288.963C1191.19 -289.814 1190.04 -290.609 1188.91 -291.434L1185.5 -293.888L1183.8 -295.114L1182.94 -295.726L1182.06 -296.299L1174.96 -300.867C1174.36 -301.241 1173.77 -301.638 1173.16 -301.992L1171.32 -303.046L1167.62 -305.145L1163.9 -307.237C1162.65 -307.913 1161.36 -308.523 1160.08 -309.168C1157.52 -310.428 1154.99 -311.744 1152.39 -312.947L1144.51 -316.383L1142.53 -317.241L1140.52 -318.011L1136.48 -319.54L1132.45 -321.067C1131.11 -321.591 1129.71 -321.982 1128.35 -322.446C1125.6 -323.328 1122.88 -324.26 1120.12 -325.101L1111.77 -327.412L1109.68 -327.991L1107.57 -328.476L1103.35 -329.452L1099.13 -330.428C1097.71 -330.73 1096.29 -330.961 1094.86 -331.23L1090.59 -332.009C1089.17 -332.255 1087.75 -332.565 1086.31 -332.73L1077.7 -333.889C1076.26 -334.112 1074.81 -334.186 1073.37 -334.329L1069.04 -334.711C1067.59 -334.827 1066.15 -334.992 1064.7 -335.065L1060.35 -335.252L1056 -335.438C1055.28 -335.463 1054.55 -335.514 1053.83 -335.516L1051.65 -335.513L1042.95 -335.492L1034.25 -335.095C1022.67 -334.365 1011.14 -333.022 999.756 -330.852C988.401 -328.598 977.213 -325.607 966.337 -321.811C944.661 -314.056 924.25 -303.285 906.119 -289.905L902.727 -287.393L901.035 -286.135L899.412 -284.802L892.945 -279.459C888.832 -275.706 884.643 -272.028 880.844 -268.01C878.909 -266.033 876.926 -264.097 875.138 -262.003C873.313 -259.941 871.459 -257.9 869.653 -255.823L864.476 -249.417L863.179 -247.817C862.757 -247.276 862.366 -246.714 861.958 -246.166L859.529 -242.852L857.092 -239.543C856.674 -238.999 856.294 -238.43 855.92 -237.859L854.785 -236.152C853.278 -233.872 851.724 -231.61 850.236 -229.313L846.016 -222.28L844.958 -220.522C844.602 -219.936 844.307 -219.322 843.978 -218.724L842.055 -215.112C839.374 -210.344 837.229 -205.348 834.937 -200.42C832.954 -195.382 830.851 -190.385 829.315 -185.236C825.557 -173.554 823.047 -161.647 821.657 -149.66C820.342 -137.662 820.159 -125.599 820.952 -113.531C822.558 -89.3797 828.652 -65.6598 839.078 -43.5725C849.413 -21.5098 863.75 -0.533196 881.675 16.9053C890.573 25.5331 900.267 33.4352 910.649 40.5231L914.55 43.1423L916.5 44.4506L918.516 45.6718C921.213 47.2858 923.884 48.9367 926.604 50.5174L934.938 55.0068C936.308 55.7871 937.774 56.412 939.192 57.1132L943.481 59.1676C947.196 60.948 947.985 60.2721 944.051 58.3251L936.511 54.5833L936.511 54.5842Z" fill="url(#paint4_linear)"/>
<path fill-rule="evenodd" clip-rule="evenodd" d="M1273.3 20.904C1274.02 20.4561 1274.78 20.0576 1275.6 19.7306C1276.43 19.4256 1277.31 19.2153 1278.22 19.1743C1278.33 19.168 1278.34 19.5339 1278.23 19.5476C1277.37 19.6265 1276.52 19.7474 1275.69 19.984C1274.88 20.2395 1274.1 20.5896 1273.45 21.1049C1272.45 21.9114 1271.89 22.9975 1271.49 24.0438C1272.21 22.9698 1273.21 22.0825 1274.4 21.4668C1275.6 20.8511 1276.94 20.5277 1278.31 20.5276C1279.53 20.5279 1280.73 20.7841 1281.82 21.2766C1282.92 21.7691 1283.87 22.4849 1284.62 23.3695C1285.37 24.254 1285.89 25.284 1286.14 26.3808C1286.39 27.4776 1286.36 28.6123 1286.06 29.6984C1285.76 30.7846 1285.2 31.7934 1284.41 32.6481C1283.62 33.5028 1282.63 34.1807 1281.52 34.6303C1280.4 35.0798 1279.19 35.289 1277.97 35.242C1276.75 35.1949 1275.56 34.8929 1274.49 34.3589C1274.96 34.75 1275.51 35.0823 1276.12 35.2863C1277.63 35.7963 1279.31 35.8962 1281 35.6312C1282.7 35.3357 1284.19 34.4115 1285.56 33.3368C1286.25 32.7837 1286.76 32.0593 1287.16 31.2906C1287.54 30.5094 1287.78 29.6871 1288.02 28.8449C1288.05 28.7481 1288.36 28.7765 1288.34 28.8827C1288.17 29.7576 1288.02 30.6345 1287.74 31.5094C1287.44 32.3695 1287.02 33.2243 1286.37 33.9257C1285.09 35.301 1283.51 36.5817 1281.53 37.0759C1279.6 37.5408 1277.56 37.4817 1275.67 36.9056C1273.8 36.3515 1272.18 35.2905 1270.96 33.9635C1269.73 32.6597 1268.84 31.0404 1268.59 29.3159C1268.32 27.5852 1268.86 25.8723 1269.59 24.3582C1270.36 22.7988 1271.89 21.7778 1273.3 20.904ZM1288.27 26.3266C1288.07 25.6694 1288.14 24.9575 1288.14 24.1731C1288.13 23.4045 1288.03 22.5706 1287.55 21.944C1287.14 21.4172 1286.45 21.0533 1285.82 20.7263C1285.19 20.3941 1284.61 20.0923 1284.25 19.5045C1284.13 19.3184 1285.14 18.2427 1285.32 18.4151C1286.41 19.4902 1287.33 20.7023 1288.06 22.0154C1288.8 23.3571 1288.8 24.8429 1289.08 26.1783C1289.09 26.2077 1288.28 26.3518 1288.27 26.3255L1288.27 26.3266ZM1295.5 23.4854C1296.47 26.7556 1296.05 30.1687 1294.77 33.2327C1293.52 36.2863 1291.47 39.1768 1288.47 40.9791C1285.47 42.7876 1281.79 43.3197 1278.47 43.1683C1276.79 43.092 1275.13 42.7939 1273.55 42.2829C1271.99 41.7612 1270.52 41.023 1269.21 40.0937C1266.62 38.2284 1265 35.5902 1263.99 32.9089C1263.45 31.5619 1263.24 30.1193 1263.24 28.7208C1263.23 27.3202 1263.46 25.9386 1263.82 24.5863C1264.18 23.2142 1264.61 21.8314 1265.29 20.516C1265.96 19.2048 1266.86 17.9388 1268.09 16.9862C1270.53 15.0535 1273.65 13.9442 1276.82 13.5604C1276.91 13.552 1276.97 14.0168 1276.88 14.0231C1274.59 14.2733 1272.01 14.4815 1270.01 15.8001C1268.02 17.1113 1266.79 19.0702 1265.76 20.9145C1264.69 22.8114 1264.71 24.9933 1264.65 26.9133C1264.53 29.4968 1265.18 32.1581 1266.64 34.3831C1267.36 35.4956 1268.05 36.6511 1268.98 37.7205C1269.9 38.7846 1271.04 39.7814 1272.43 40.3997C1273.82 41.0117 1275.34 41.3671 1276.87 41.5227C1278.4 41.6594 1279.93 41.5994 1281.48 41.4123C1283.03 41.2146 1284.51 40.6436 1285.86 39.9086C1287.21 39.1768 1288.41 38.2526 1289.57 37.2841C1290.73 36.322 1291.86 35.2621 1292.78 33.9919C1293.68 32.7343 1294.41 31.2791 1294.64 29.7334C1295.13 26.6683 1294.4 23.4655 1292.86 20.678C1291.41 18.0989 1289.17 15.9724 1286.41 14.5678C1285.22 13.9705 1283.8 13.7287 1282.44 13.6056C1281.07 13.4532 1279.79 13.4206 1278.52 13.0063C1278.11 12.8738 1278.35 11.8412 1278.81 11.9359C1280.55 12.2776 1282.26 12.6351 1283.95 13.1241C1285.64 13.6077 1287.31 14.2828 1288.74 15.2312C1290.27 16.2302 1291.69 17.39 1292.87 18.7716C1294.04 20.1522 1294.98 21.7536 1295.5 23.4854H1295.5Z" fill="#00C7FA"/>
<path fill-rule="evenodd" clip-rule="evenodd" d="M1355.43 266.437C1355.88 266.153 1356.36 265.899 1356.88 265.691C1357.41 265.498 1357.97 265.365 1358.54 265.339C1358.62 265.335 1358.62 265.567 1358.55 265.575C1358 265.626 1357.46 265.703 1356.94 265.852C1356.43 266.015 1355.93 266.237 1355.52 266.565C1354.88 267.077 1354.53 267.767 1354.28 268.431C1354.73 267.749 1355.36 267.186 1356.12 266.795C1356.88 266.404 1357.73 266.198 1358.6 266.198C1361.4 266.198 1363.67 268.29 1363.67 270.873C1363.68 271.682 1363.45 272.477 1363.01 273.181C1362.58 273.885 1361.95 274.472 1361.2 274.887C1360.44 275.301 1359.58 275.528 1358.7 275.544C1357.82 275.561 1356.95 275.367 1356.18 274.982C1356.48 275.231 1356.82 275.441 1357.21 275.571C1358.17 275.896 1359.24 275.959 1360.31 275.791C1361.39 275.602 1362.33 275.017 1363.2 274.333C1363.64 273.983 1363.96 273.523 1364.21 273.035C1364.45 272.538 1364.61 272.016 1364.76 271.481C1364.78 271.418 1364.97 271.436 1364.96 271.505C1364.85 272.06 1364.76 272.617 1364.58 273.172C1364.39 273.719 1364.12 274.263 1363.71 274.708C1362.9 275.581 1361.9 276.395 1360.65 276.708C1359.42 277.004 1358.13 276.966 1356.92 276.6C1355.76 276.244 1354.73 275.597 1353.94 274.732C1353.16 273.903 1352.59 272.875 1352.44 271.779C1352.26 270.68 1352.61 269.592 1353.07 268.631C1353.56 267.64 1354.53 266.992 1355.43 266.437ZM1365.53 269.543C1365.38 269.107 1365.44 268.635 1365.44 268.116C1365.43 267.606 1365.36 267.054 1365.01 266.638C1364.73 266.289 1364.24 266.049 1363.8 265.831C1363.34 265.611 1362.94 265.41 1362.68 265.021C1362.6 264.898 1363.31 264.185 1363.44 264.3C1364.21 265.005 1364.86 265.809 1365.38 266.686C1365.91 267.575 1365.9 268.559 1366.1 269.445C1366.11 269.464 1365.54 269.559 1365.53 269.543H1365.53ZM1370.32 267.855C1370.97 270.055 1370.69 272.35 1369.84 274.412C1369.01 276.466 1367.66 278.41 1365.67 279.622C1363.68 280.84 1361.25 281.196 1359.04 281.094C1357.93 281.043 1356.84 280.842 1355.79 280.499C1354.75 280.147 1353.78 279.651 1352.91 279.027C1351.2 277.772 1350.12 275.997 1349.45 274.193C1349.1 273.287 1348.96 272.316 1348.96 271.375C1348.95 270.434 1349.11 269.504 1349.35 268.595C1349.58 267.672 1349.87 266.743 1350.31 265.857C1350.76 264.975 1351.35 264.123 1352.17 263.483C1353.79 262.182 1355.85 261.437 1357.95 261.178C1358.01 261.173 1358.05 261.485 1357.99 261.49C1356.48 261.659 1354.77 261.797 1353.44 262.685C1352.12 263.567 1351.31 264.886 1350.63 266.125C1349.92 267.401 1349.93 268.87 1349.89 270.16C1349.81 271.898 1350.24 273.689 1351.21 275.186C1351.68 275.933 1352.15 276.711 1352.76 277.43C1353.37 278.146 1354.13 278.817 1355.05 279.232C1355.97 279.644 1356.97 279.884 1357.98 279.988C1359 280.081 1360.01 280.04 1361.04 279.913C1362.06 279.781 1363.05 279.396 1363.94 278.903C1364.84 278.409 1365.63 277.788 1366.4 277.136C1367.16 276.49 1367.92 275.777 1368.52 274.922C1369.12 274.076 1369.6 273.097 1369.75 272.058C1370.08 269.996 1369.59 267.841 1368.57 265.966C1367.62 264.237 1366.14 262.807 1364.3 261.855C1363.52 261.455 1362.57 261.292 1361.67 261.209C1360.77 261.107 1359.92 261.084 1359.08 260.806C1358.8 260.716 1358.97 260.021 1359.27 260.086C1360.42 260.316 1361.56 260.556 1362.68 260.885C1363.8 261.211 1364.9 261.664 1365.85 262.302C1366.86 262.975 1367.8 263.754 1368.58 264.684C1369.36 265.612 1369.98 266.69 1370.32 267.855Z" fill="white"/>
<path fill-rule="evenodd" clip-rule="evenodd" d="M938.178 125.2C938.333 125.925 938.426 126.663 938.433 127.421C938.417 128.176 938.293 128.945 938.003 129.664C937.969 129.759 937.628 129.629 937.656 129.539C937.894 128.837 938.088 128.128 938.167 127.4C938.224 126.673 938.182 125.934 937.938 125.246C937.554 124.17 936.75 123.343 935.927 122.654C936.662 123.598 937.122 124.7 937.261 125.855C937.4 127.01 937.214 128.178 936.721 129.248C936.342 130.069 935.79 130.813 935.098 131.438C934.405 132.063 933.586 132.557 932.687 132.891C931.787 133.224 930.825 133.392 929.855 133.383C928.885 133.375 927.926 133.191 927.034 132.842C925.856 132.382 924.828 131.649 924.051 130.714C923.274 129.779 922.774 128.674 922.601 127.508C922.427 126.342 922.586 125.154 923.061 124.062C923.536 122.969 924.311 122.008 925.311 121.274C924.77 121.497 924.28 121.814 923.869 122.208C922.852 123.207 922.153 124.485 921.791 125.896C921.448 127.337 921.767 128.83 922.267 130.292C922.527 131.03 923.013 131.691 923.581 132.277C924.167 132.853 924.838 133.344 925.531 133.833C925.612 133.889 925.474 134.121 925.382 134.068C924.636 133.619 923.878 133.185 923.172 132.65C922.484 132.105 921.845 131.468 921.429 130.71C920.617 129.217 920.006 127.516 920.262 125.793C920.529 124.116 921.318 122.546 922.534 121.272C923.718 120.016 925.284 119.13 926.951 118.654C928.599 118.166 930.418 118.054 932.101 118.481C933.8 118.891 935.187 119.933 936.323 121.053C937.487 122.216 937.878 123.783 938.178 125.2ZM927.524 135.329C928.21 135.403 928.845 135.718 929.572 136.004C930.289 136.276 931.101 136.495 931.861 136.337C932.5 136.203 933.09 135.788 933.626 135.403C934.17 135.013 934.663 134.662 935.34 134.588C935.558 134.556 936.186 135.753 935.958 135.837C934.56 136.32 933.094 136.618 931.605 136.722C930.085 136.831 928.707 136.288 927.363 136.033C927.333 136.026 927.498 135.326 927.524 135.328V135.329ZM928.091 141.734C924.653 141.304 921.59 139.717 919.174 137.565C916.758 135.445 914.785 132.753 914.194 129.692C913.592 126.635 914.442 123.514 915.807 120.919C916.496 119.609 917.386 118.398 918.45 117.323C919.516 116.271 920.751 115.375 922.111 114.667C924.818 113.295 927.901 112.972 930.8 113.152C932.265 113.222 933.703 113.583 935.019 114.101C936.343 114.606 937.56 115.299 938.702 116.085C939.863 116.874 941.007 117.725 941.999 118.748C942.988 119.764 943.849 120.948 944.294 122.281C945.219 124.935 945.117 127.83 944.311 130.501C944.286 130.575 943.828 130.447 943.853 130.377C944.459 128.463 945.211 126.331 944.705 124.247C944.203 122.176 942.806 120.479 941.449 118.979C940.055 117.428 937.993 116.639 936.207 115.883C933.815 114.841 931.069 114.375 928.435 114.721C927.123 114.885 925.778 115.016 924.428 115.365C923.087 115.705 921.729 116.247 920.636 117.127C919.549 118.008 918.654 119.087 917.946 120.248C917.255 121.415 916.75 122.658 916.355 123.962C915.973 125.27 915.963 126.664 916.161 128.006C916.353 129.356 916.784 130.649 917.27 131.933C917.751 133.206 918.332 134.504 919.193 135.697C920.044 136.884 921.148 137.999 922.519 138.749C925.228 140.268 928.514 140.865 931.708 140.662C934.669 140.46 937.497 139.454 939.835 137.772C940.836 137.044 941.588 135.998 942.202 134.961C942.848 133.93 943.352 132.916 944.208 132.057C944.486 131.777 945.367 132.355 945.111 132.684C944.151 133.941 943.182 135.176 942.1 136.346C941.021 137.514 939.775 138.591 938.352 139.388C936.85 140.236 935.238 140.937 933.499 141.373C931.767 141.801 929.914 141.959 928.091 141.734Z" fill="#0088FF"/>
<path fill-rule="evenodd" clip-rule="evenodd" d="M1451.95 424.383C1452.05 424.915 1452.11 425.459 1452.11 426.017C1452.1 426.582 1451.98 427.141 1451.78 427.673C1451.75 427.743 1451.51 427.651 1451.53 427.584C1451.71 427.064 1451.85 426.541 1451.92 426.003C1451.97 425.467 1451.94 424.923 1451.78 424.419C1451.51 423.63 1450.94 423.028 1450.36 422.526C1450.88 423.231 1451.2 424.045 1451.29 424.893C1451.37 425.741 1451.23 426.595 1450.86 427.378C1449.68 429.935 1446.55 431.159 1443.86 430.11C1441.18 429.062 1439.96 426.139 1441.14 423.581C1441.49 422.811 1442.04 422.133 1442.75 421.603C1442.35 421.774 1442 422.011 1441.7 422.303C1440.96 423.049 1440.44 423.996 1440.17 425.039C1439.91 426.103 1440.12 427.201 1440.47 428.273C1440.65 428.814 1440.99 429.298 1441.39 429.724C1441.81 430.143 1442.28 430.5 1442.78 430.853C1442.83 430.894 1442.73 431.066 1442.67 431.027C1442.13 430.702 1441.59 430.391 1441.09 430.002C1440.6 429.607 1440.15 429.143 1439.86 428.589C1439.29 427.495 1438.87 426.247 1439.07 424.976C1439.28 423.737 1439.86 422.577 1440.75 421.626C1441.6 420.714 1442.71 420.033 1443.95 419.66C1445.14 419.284 1446.45 419.187 1447.65 419.486C1448.87 419.774 1449.86 420.529 1450.66 421.344C1451.48 422.191 1451.75 423.342 1451.95 424.383H1451.95ZM1444.19 431.938C1444.68 431.987 1445.14 432.213 1445.65 432.417C1446.17 432.611 1446.75 432.766 1447.3 432.643C1447.76 432.538 1448.18 432.227 1448.57 431.938C1448.97 431.647 1449.33 431.384 1449.81 431.324C1449.97 431.299 1450.41 432.176 1450.24 432.239C1449.24 432.606 1448.18 432.838 1447.11 432.928C1446.01 433.023 1445.03 432.634 1444.07 432.457C1444.05 432.453 1444.17 431.936 1444.19 431.938ZM1444.53 436.652C1442.07 436.365 1439.88 435.223 1438.17 433.658C1436.46 432.118 1435.07 430.152 1434.67 427.902C1434.27 425.654 1434.92 423.347 1435.92 421.424C1436.43 420.455 1437.08 419.556 1437.86 418.752C1438.63 417.971 1439.53 417.301 1440.52 416.764C1442.47 415.729 1444.69 415.464 1446.77 415.571C1447.82 415.61 1448.85 415.864 1449.79 416.234C1450.74 416.594 1451.61 417.095 1452.42 417.663C1453.25 418.233 1454.06 418.851 1454.76 419.597C1455.46 420.336 1456.07 421.201 1456.37 422.178C1457.01 424.126 1456.91 426.26 1456.3 428.235C1456.28 428.288 1455.95 428.199 1455.97 428.147C1456.43 426.731 1456.99 425.154 1456.65 423.624C1456.31 422.102 1455.32 420.865 1454.36 419.77C1453.38 418.641 1451.9 418.077 1450.63 417.537C1448.92 416.789 1446.95 416.471 1445.06 416.748C1444.11 416.881 1443.15 416.988 1442.17 417.257C1441.21 417.52 1440.23 417.93 1439.43 418.588C1438.64 419.248 1437.99 420.05 1437.47 420.912C1436.96 421.786 1436.57 422.708 1436.29 423.662C1436 424.629 1435.98 425.655 1436.1 426.642C1436.23 427.635 1436.52 428.585 1436.86 429.526C1437.19 430.46 1437.6 431.411 1438.2 432.282C1438.8 433.149 1439.58 433.961 1440.56 434.5C1442.49 435.596 1444.84 436.008 1447.14 435.831C1449.26 435.661 1451.31 434.888 1453.01 433.63C1453.74 433.085 1454.29 432.308 1454.74 431.538C1455.21 430.773 1455.59 430.021 1456.21 429.382C1456.41 429.173 1457.04 429.59 1456.85 429.835C1456.15 430.771 1455.44 431.689 1454.65 432.559C1453.86 433.43 1452.96 434.234 1451.93 434.834C1450.84 435.471 1449.67 436.002 1448.42 436.338C1447.17 436.669 1445.84 436.801 1444.53 436.652Z" fill="#55FBDC"/>
<path opacity="0.803" fill-rule="evenodd" clip-rule="evenodd" d="M1356.02 24.3939C1356.39 24.157 1356.79 23.9528 1357.21 23.784C1357.64 23.6263 1358.1 23.5169 1358.57 23.4959C1358.63 23.4917 1358.63 23.682 1358.57 23.6894C1358.13 23.7304 1357.68 23.7945 1357.26 23.9165C1356.83 24.049 1356.43 24.2309 1356.09 24.499C1355.57 24.9175 1355.28 25.4832 1355.08 26.0258C1355.45 25.4678 1355.97 25.0066 1356.59 24.6866C1357.21 24.3666 1357.9 24.1984 1358.61 24.1983C1359.16 24.1986 1359.7 24.2977 1360.2 24.4901C1360.71 24.6826 1361.17 24.9644 1361.55 25.3196C1361.94 25.6749 1362.24 26.0965 1362.45 26.5605C1362.66 27.0244 1362.77 27.5216 1362.77 28.0236C1362.77 28.6859 1362.58 29.3368 1362.22 29.9127C1361.87 30.4886 1361.36 30.9696 1360.74 31.3086C1360.12 31.6477 1359.42 31.8331 1358.7 31.8467C1357.98 31.8603 1357.27 31.7017 1356.63 31.3863C1356.88 31.5892 1357.16 31.7617 1357.48 31.8679C1358.26 32.1329 1359.14 32.1854 1360.01 32.0466C1360.9 31.8942 1361.67 31.4136 1362.38 30.8553C1362.74 30.5682 1363 30.1918 1363.21 29.7933C1363.4 29.3864 1363.53 28.9595 1363.65 28.521C1363.67 28.4705 1363.83 28.4852 1363.82 28.541C1363.73 28.9952 1363.65 29.4505 1363.51 29.9058C1363.35 30.3527 1363.13 30.7975 1362.8 31.1613C1362.14 31.8763 1361.31 32.5419 1360.29 32.7985C1359.27 33.0424 1358.21 33.0056 1357.24 32.7101C1356.29 32.419 1355.44 31.8897 1354.8 31.1813C1354.16 30.5031 1353.7 29.6618 1353.57 28.766C1353.43 27.8659 1353.71 26.9763 1354.09 26.1898C1354.49 25.3791 1355.28 24.8481 1356.02 24.3939ZM1363.44 26.6493C1363.34 26.3002 1363.37 25.9238 1363.37 25.5074C1363.37 25.0994 1363.32 24.6578 1363.09 24.3255C1362.9 24.0458 1362.58 23.8524 1362.28 23.6799C1361.98 23.5033 1361.71 23.3434 1361.54 23.0322C1361.48 22.9334 1361.96 22.3624 1362.04 22.4539C1362.56 23.0338 1363 23.6761 1363.34 24.3634C1363.69 25.0742 1363.68 25.8618 1363.82 26.5705C1363.82 26.5862 1363.44 26.6619 1363.44 26.6493ZM1368.11 25.5085C1368.62 27.2687 1368.4 29.1046 1367.73 30.7554C1367.08 32.3968 1366.01 33.9519 1364.44 34.9225C1362.87 35.8962 1360.95 36.1822 1359.21 36.1001C1358.33 36.0589 1357.46 35.8983 1356.64 35.6238C1355.82 35.3419 1355.05 34.9446 1354.36 34.4461C1353.02 33.442 1352.16 32.0225 1351.64 30.5798C1351.36 29.8543 1351.25 29.0783 1351.25 28.3254C1351.24 27.5725 1351.36 26.8291 1351.55 26.1005C1351.74 25.3623 1351.96 24.6189 1352.32 23.9102C1352.67 23.2057 1353.14 22.5233 1353.78 22.0112C1355.06 20.9702 1356.69 20.374 1358.35 20.1679C1358.39 20.1627 1358.42 20.4129 1358.38 20.4171C1357.18 20.5507 1355.83 20.6632 1354.78 21.3729C1353.74 22.0774 1353.1 23.1331 1352.56 24.1247C1352 25.1457 1352.01 26.3202 1351.98 27.3528C1351.92 28.7439 1352.26 30.176 1353.02 31.3726C1353.4 31.972 1353.76 32.5934 1354.25 33.1686C1354.73 33.7416 1355.32 34.2779 1356.05 34.6112C1356.78 34.9403 1357.57 35.1317 1358.37 35.2148C1359.17 35.2884 1359.97 35.2568 1360.78 35.1559C1361.59 35.0497 1362.37 34.7416 1363.07 34.3463C1363.78 33.953 1364.4 33.4556 1365.01 32.9341C1365.62 32.4168 1366.21 31.8458 1366.69 31.1623C1367.16 30.4862 1367.54 29.7029 1367.66 28.8711C1367.92 27.2213 1367.54 25.4979 1366.73 23.9975C1365.99 22.6189 1364.81 21.4747 1363.36 20.7095C1362.74 20.3877 1361.99 20.2573 1361.28 20.1921C1360.57 20.1101 1359.9 20.0922 1359.23 19.8693C1359.02 19.7978 1359.15 19.2426 1359.39 19.2931C1360.29 19.4771 1361.19 19.6695 1362.07 19.9324C1362.96 20.1932 1363.83 20.5559 1364.58 21.067C1365.39 21.6045 1366.12 22.246 1366.74 22.9723C1367.37 23.7279 1367.84 24.5892 1368.11 25.5085Z" fill="#55FBDC"/>
<path fill-rule="evenodd" clip-rule="evenodd" d="M989.981 315.264C991.982 322.597 994.408 329.987 997.183 336.667C997.956 338.723 998.824 340.657 999.688 342.467C985.113 324.05 973.014 303.988 963.888 282.817C961.602 277.137 959.175 271.521 957.319 265.746L955.832 261.447L955.092 259.302L954.985 258.937C954.854 257.384 954.672 255.005 954.352 251.968L954.007 248.538C953.884 247.318 953.721 246.033 953.676 244.655L953.172 235.693C953.124 234.891 953.077 234.076 953.03 233.249C952.996 232.419 953.009 231.568 952.997 230.713L952.956 225.445L952.907 219.959L953.109 215.105C957.927 250.816 970.659 284.845 989.98 315.264" fill="url(#paint5_linear)"/>
<path fill-rule="evenodd" clip-rule="evenodd" d="M952.67 178.529C933.338 184.809 914.751 192.882 897.195 202.625C879.663 212.395 863.259 223.782 848.236 236.611C818.205 262.226 793.91 293.458 777.23 327.862" fill="url(#paint6_linear)"/>
<path fill-rule="evenodd" clip-rule="evenodd" d="M763.377 248.027C764.826 245.717 766.292 243.169 768.049 240.565C772.312 234.086 777.552 226.988 783.37 219.892C764.677 251.377 752.885 286.473 749.463 323.187L763.377 248.027ZM2003.54 105.062C2004.99 102.751 2006.45 100.203 2008.21 97.6C2012.47 91.1209 2017.71 84.0226 2023.53 76.9267C2004.84 108.411 1993.05 143.508 1989.63 180.222" fill="url(#paint7_linear)"/>
<path fill-rule="evenodd" clip-rule="evenodd" d="M1370.42 492.655C1367.06 499.816 1363.85 508.479 1361.85 517.794C1361.52 519.307 1361.19 520.823 1360.89 522.342C1360.15 492.72 1364.73 463.008 1374.35 434.756C1374.91 433.874 1375.54 432.816 1376.29 431.582C1376.98 430.389 1378.48 427.637 1380.55 423.833L1381.36 422.359L1382.3 420.821L1384.34 417.495C1385.79 415.184 1387.25 412.636 1389.01 410.034C1393.27 403.554 1398.51 396.456 1404.33 389.36C1385.64 420.844 1373.85 455.941 1370.42 492.655Z" fill="url(#paint8_linear)"/>
<path fill-rule="evenodd" clip-rule="evenodd" d="M926.51 -193.39C919.57 -196.4 912.461 -199.015 905.22 -201.125C903.408 -201.645 901.574 -202.088 899.757 -202.571C898.844 -202.804 897.938 -203.054 897.025 -203.271L894.266 -203.855L891.514 -204.438C890.595 -204.624 889.685 -204.848 888.757 -204.981L883.226 -205.89L881.808 -206.121L880.38 -206.289L877.524 -206.626C875.619 -206.851 873.718 -207.101 871.801 -207.204L866.06 -207.617L860.304 -207.773C859.346 -207.791 858.385 -207.842 857.427 -207.83L854.549 -207.774L851.67 -207.718C850.71 -207.692 849.75 -207.701 848.793 -207.619L843.048 -207.24L841.611 -207.141L840.18 -206.981L837.322 -206.661L834.461 -206.338C833.504 -206.247 832.565 -206.053 831.616 -205.915L825.938 -205.003C822.195 -204.205 818.418 -203.524 814.735 -202.497C811.008 -201.617 807.386 -200.421 803.735 -199.308C801.935 -198.684 800.149 -198.026 798.357 -197.385C796.551 -196.772 794.806 -196.026 793.053 -195.299C789.51 -193.912 786.118 -192.242 782.689 -190.64C779.357 -188.878 775.97 -187.198 772.773 -185.233C769.491 -183.389 766.407 -181.276 763.267 -179.24C760.252 -177.053 757.175 -174.934 754.318 -172.569C752.865 -171.415 751.394 -170.278 750.027 -169.036C748.64 -167.816 747.234 -166.614 745.864 -165.377L741.884 -161.55L740.888 -160.593L739.942 -159.594L738.051 -157.596L736.162 -155.598C735.537 -154.927 734.964 -154.219 734.362 -153.531C733.184 -152.138 731.958 -150.776 730.819 -149.356L727.468 -145.046C726.894 -144.338 726.375 -143.595 725.858 -142.851L724.295 -140.625L722.757 -138.43C722.268 -137.686 721.805 -136.927 721.327 -136.174C720.392 -134.66 719.402 -133.173 718.515 -131.633L715.92 -126.983C715.706 -126.594 715.48 -126.21 715.28 -125.816L714.691 -124.625L713.519 -122.243L712.348 -119.859C711.965 -119.062 711.643 -118.241 711.288 -117.433C710.601 -115.808 709.878 -114.195 709.225 -112.559L707.404 -107.602L706.951 -106.363C706.804 -105.95 706.687 -105.526 706.555 -105.108L705.78 -102.591C704.666 -99.2551 703.924 -95.8325 703.052 -92.4414L702.045 -87.2965C701.888 -86.4374 701.691 -85.5846 701.569 -84.7203L701.209 -82.1294L700.851 -79.5386C700.733 -78.6763 700.596 -77.8141 700.542 -76.9445L700.104 -71.7407L699.999 -70.44L699.96 -69.1362L699.881 -66.5295C699.839 -64.7925 699.736 -63.0554 699.816 -61.3183L699.935 -56.1114C700.014 -54.3785 700.184 -52.6488 700.303 -50.918L700.501 -48.324L700.831 -45.7416C701.063 -44.0213 701.257 -42.2958 701.521 -40.5808C702.169 -37.1677 702.706 -33.7335 703.598 -30.3646C704.335 -26.963 705.403 -23.6371 706.391 -20.2913C706.931 -18.6299 707.551 -16.9917 708.129 -15.3409C708.428 -14.5175 708.708 -13.689 709.022 -12.8709L710.035 -10.442L711.052 -8.01093C711.394 -7.20128 711.714 -6.38322 712.114 -5.59566L714.407 -0.829239C714.774 -0.026947 715.212 0.74379 715.636 1.52084L716.912 3.85304L718.192 6.18315C718.641 6.94969 719.121 7.70151 719.584 8.46068C720.532 9.96852 721.431 11.5058 722.424 12.9915L725.483 17.4078C729.969 23.5972 734.947 29.4731 740.375 34.9877C745.883 40.4612 751.819 45.5566 758.136 50.2332L762.942 53.6642L767.915 56.885L769.16 57.6862L770.444 58.437L773.011 59.9353L775.579 61.4316L778.219 62.8154L780.86 64.1991L782.182 64.89L783.534 65.5251L788.95 68.056C792.642 69.5838 796.301 71.1705 800.094 72.4639C807.615 75.1578 815.37 77.3911 823.303 78.9284C824.292 79.1271 825.274 79.3595 826.27 79.5309L829.264 80.0157L832.258 80.4994L833.756 80.737L835.264 80.9105L841.299 81.6003C843.318 81.7685 845.341 81.8842 847.36 82.0272C848.372 82.0797 849.38 82.1954 850.393 82.1985L853.43 82.2648L856.467 82.3311C856.972 82.3384 857.478 82.3594 857.983 82.3563L859.501 82.3205L865.568 82.1754C867.586 82.0734 869.601 81.9062 871.617 81.7748C872.623 81.6928 873.634 81.6613 874.634 81.5372L877.64 81.1923L880.646 80.8463C881.145 80.7853 881.647 80.7401 882.146 80.6665L883.636 80.4268L889.59 79.4699L895.483 78.2618C896.173 78.122 896.86 77.9709 897.544 77.8086C898.09 77.6568 898.634 77.4977 899.175 77.3312C900.116 77.0399 900.75 76.8086 901.007 76.673C901.521 76.4017 900.532 76.5121 897.475 77.2807L891.856 78.4363C890.915 78.6151 889.986 78.8464 889.036 78.9842L886.191 79.4331L883.346 79.8832L881.923 80.1082L880.488 80.2722C878.574 80.4867 876.66 80.7016 874.746 80.9168C873.791 81.044 872.824 81.0682 871.862 81.1439L868.973 81.3363L866.084 81.5277L863.186 81.5939C861.254 81.6255 859.322 81.6949 857.388 81.6949L851.586 81.5498C843.862 81.2018 836.127 80.5351 828.536 79.1335C820.945 77.7844 813.427 76.04 806.176 73.6394C798.926 71.2883 791.814 68.545 785.042 65.2065C778.258 61.9006 771.662 58.2435 765.503 54.0333C753.09 45.7413 742.056 35.7511 732.813 24.5495C723.821 13.6203 716.442 1.51558 711.144 -11.3221C710.809 -12.1223 710.452 -12.9161 710.137 -13.7237L709.246 -16.1631L708.357 -18.6026C708.064 -19.4175 707.748 -20.225 707.514 -21.0568L706.003 -26.0093C705.743 -26.8326 705.517 -27.6645 705.325 -28.5034L704.706 -31.0102L704.088 -33.5159C703.872 -34.3486 703.751 -35.2003 703.58 -36.0415L702.622 -41.0992L701.944 -46.1916C701.841 -47.0412 701.699 -47.8866 701.63 -48.7383L701.433 -51.2934C700.79 -58.1008 700.913 -64.9302 701.339 -71.7144L701.807 -76.7963C701.868 -77.6448 702.001 -78.486 702.129 -79.3283L702.503 -81.8529L702.878 -84.3765C702.987 -85.2208 703.203 -86.0483 703.359 -86.8853L704.386 -91.8915L705.674 -96.8461C705.899 -97.6684 706.087 -98.5001 706.341 -99.3171L707.123 -101.76L707.903 -104.203C708.165 -105.017 708.41 -105.836 708.731 -106.633L710.553 -111.446C710.839 -112.254 711.189 -113.04 711.539 -113.827L712.577 -116.191L713.612 -118.556C713.962 -119.343 714.377 -120.104 714.755 -120.88C715.535 -122.423 716.289 -123.977 717.09 -125.511L719.652 -130.046C720.488 -131.613 721.505 -133.091 722.44 -134.609L723.87 -136.876C724.331 -137.642 724.885 -138.354 725.387 -139.095C726.423 -140.56 727.431 -142.043 728.487 -143.497L731.798 -147.772L732.626 -148.841L733.506 -149.874L735.269 -151.939L737.033 -154.006C737.628 -154.69 738.271 -155.336 738.887 -156.004C740.144 -157.319 741.352 -158.675 742.647 -159.961L746.584 -163.772C751.965 -168.737 757.664 -173.421 763.744 -177.654C769.858 -181.843 776.252 -185.679 782.929 -189.042C789.644 -192.333 796.575 -195.242 803.707 -197.671C810.873 -200.012 818.185 -201.976 825.631 -203.402C827.489 -203.77 829.371 -204.026 831.241 -204.343L834.049 -204.796L836.878 -205.122C838.766 -205.324 840.647 -205.585 842.54 -205.74L848.228 -206.126C855.817 -206.466 863.444 -206.519 871.025 -205.847C878.892 -205.209 886.751 -204.118 894.435 -202.298C895.398 -202.077 896.371 -201.898 897.323 -201.642L900.181 -200.876C902.078 -200.345 904.006 -199.903 905.869 -199.263L911.494 -197.462L917.023 -195.409C924.333 -192.54 931.439 -189.217 938.235 -185.398C945.001 -181.528 951.467 -177.23 957.586 -172.537L962.108 -168.925C963.577 -167.682 965.003 -166.399 966.455 -165.139C967.93 -163.904 969.262 -162.535 970.654 -161.222L972.723 -159.236C973.4 -158.565 974.038 -157.861 974.7 -157.175L976.663 -155.105C977.322 -154.417 977.982 -153.732 978.587 -153.004L982.3 -148.704C984.636 -145.744 987.017 -142.81 989.121 -139.709C993.419 -133.57 997.306 -127.183 1000.48 -120.516C1001.34 -118.879 1002.05 -117.18 1002.79 -115.495C1003.52 -113.809 1004.29 -112.137 1004.9 -110.409C1005.53 -108.692 1006.2 -106.987 1006.81 -105.262L1008.45 -100.047C1008.89 -98.7588 1009.17 -97.5674 1009.47 -96.5286C1009.77 -95.4876 1010.05 -94.5854 1010.3 -93.8315C1010.55 -93.0765 1010.77 -92.4709 1010.96 -92.0198C1011.12 -91.5655 1011.26 -91.268 1011.36 -91.1386C1011.56 -90.8757 1011.67 -91.29 1011.55 -92.4341C1011.4 -93.5739 1011.03 -95.4487 1010.4 -98.1258C1006.92 -111.623 1001.26 -124.565 993.623 -136.524C992.705 -138.076 991.632 -139.544 990.604 -141.041C989.562 -142.53 988.56 -144.045 987.413 -145.473C986.293 -146.918 985.187 -148.375 984.052 -149.813L980.471 -154.01L979.574 -155.061L978.628 -156.072L976.729 -158.091L974.828 -160.11C974.188 -160.777 973.5 -161.406 972.838 -162.055C971.492 -163.334 970.192 -164.655 968.807 -165.895L964.61 -169.577C958.904 -174.344 952.871 -178.798 946.495 -182.793C940.083 -186.735 933.411 -190.296 926.511 -193.391" fill="url(#paint9_linear)"/>
<path fill-rule="evenodd" clip-rule="evenodd" d="M871.497 105.253L871.104 100.301C870.926 98.6564 870.532 97.0319 870.236 95.4042C870.067 94.5924 869.932 93.7754 869.726 92.9731L868.999 90.5862L868.257 88.2078L867.881 87.0217L867.401 85.8661L865.431 81.2711C863.852 78.3227 862.345 75.3365 860.358 72.6047C856.579 67.0371 852.315 61.6618 847.046 57.0963C846.393 56.5243 845.791 55.8923 845.085 55.3739L842.989 53.7872C841.575 52.7441 840.192 51.6506 838.632 50.7915C837.101 49.8957 835.578 48.9735 833.986 48.1712C832.354 47.4352 830.703 46.7307 829.037 46.0682C828.169 45.7223 828.257 45.9315 829.136 46.3174C830.592 46.9588 832.03 47.6276 833.448 48.3163C834.866 49.0061 836.16 49.8946 837.494 50.699L839.462 51.9503C840.119 52.3604 840.7 52.8714 841.317 53.3309L844.918 56.1825C846.039 57.2098 847.124 58.2676 848.216 59.3086C848.755 59.8344 849.313 60.3422 849.833 60.8816L851.322 62.564C852.298 63.6944 853.336 64.7722 854.267 65.9288L856.992 69.4523C860.455 74.1798 863.535 79.2175 865.59 84.6443C866.794 87.3003 867.46 90.1152 868.265 92.8879C868.622 94.2822 868.795 95.7112 869.051 97.1254C869.284 98.5407 869.55 99.954 869.57 101.387L869.773 105.817C869.793 107.292 869.625 108.768 869.545 110.24L869.38 112.448C869.338 113.184 869.151 113.909 869.039 114.638L868.234 119.002C867.863 120.435 867.414 121.853 866.997 123.276L866.346 125.403L865.498 127.47C864.912 128.842 864.394 130.238 863.739 131.579L861.617 135.537C858.56 140.68 855.104 145.706 850.696 150.013C850.16 150.562 849.645 151.132 849.088 151.662L847.34 153.188C846.154 154.182 845.036 155.255 843.768 156.165L839.933 158.854C839.302 159.317 838.625 159.713 837.933 160.09L835.87 161.238C833.173 162.852 830.163 163.946 827.261 165.182C825.753 165.681 824.229 166.146 822.713 166.613C821.949 166.835 821.202 167.099 820.427 167.279L818.089 167.776C811.891 169.26 805.484 169.598 799.159 169.592L794.408 169.354L793.221 169.292C792.826 169.255 792.434 169.19 792.04 169.14L789.683 168.816C786.518 168.485 783.449 167.684 780.363 166.962C778.826 166.581 777.351 166.014 775.846 165.538L773.603 164.783C772.863 164.509 772.157 164.171 771.433 163.865C769.999 163.229 768.553 162.613 767.141 161.94L763.064 159.659C757.778 156.431 752.772 152.734 748.617 148.296L747.013 146.675L745.565 144.93C744.619 143.755 743.613 142.617 742.736 141.397C741.067 138.905 739.322 136.447 738.036 133.755C736.542 131.155 735.59 128.338 734.54 125.57C734.084 124.166 733.763 122.724 733.383 121.302L732.846 119.163L732.518 116.988C732.315 115.538 732.089 114.09 731.919 112.641L731.748 108.278C731.73 107.55 731.668 106.823 731.691 106.098L731.814 103.921C731.913 102.471 731.946 101.017 732.093 99.5723C732.831 93.1393 734.53 86.8305 737.14 80.8242L739.317 76.39C740.129 74.9537 741.043 73.5626 741.919 72.1525C742.753 70.712 743.846 69.4313 744.864 68.1001L746.425 66.1233C746.951 65.4682 747.573 64.8847 748.148 64.2643C749.156 63.2212 750.164 62.1676 751.211 61.1456L754.587 58.2876C755.163 57.8249 755.702 57.3202 756.31 56.8902L758.139 55.6074C759.371 54.7704 760.552 53.864 761.826 53.088C764.42 51.597 766.925 49.9756 769.645 48.7306C770.99 48.0892 772.278 47.3342 773.652 46.7643L777.737 44.9989C778.669 44.5856 777.963 44.2786 777.005 44.6834C775.668 45.246 774.324 45.7885 772.971 46.3153C771.645 46.8937 770.348 47.5435 769.022 48.1365C766.327 49.2564 763.846 50.7505 761.25 52.0933C756.276 55.0606 751.371 58.3528 747.402 62.4789C745.208 64.5187 743.429 66.8888 741.599 69.2094C740.697 70.3787 739.974 71.6605 739.17 72.8897C738.388 74.1315 737.588 75.3617 736.985 76.6897L735.065 80.6097C734.482 81.9356 734.025 83.3089 733.508 84.6558L732.761 86.6852C732.513 87.3592 732.372 88.0648 732.175 88.7535L731.076 92.9027C730.757 94.359 730.562 95.8363 730.304 97.3021L729.944 99.5039C729.853 100.24 729.834 100.981 729.775 101.72L729.501 106.159C729.515 107.639 729.599 109.121 729.655 110.603L729.758 112.828C729.832 113.567 729.962 114.302 730.063 115.04L730.749 119.463L731.897 123.813C732.103 124.536 732.274 125.269 732.519 125.979L733.333 128.094C735.357 133.789 738.597 139.061 742.307 143.938L745.256 147.497C746.294 148.641 747.425 149.713 748.513 150.816L750.171 152.448L751.965 153.951C753.176 154.937 754.334 155.981 755.599 156.907C758.184 158.705 760.724 160.564 763.552 162.039C766.258 163.693 769.232 164.911 772.147 166.226C773.63 166.826 775.172 167.309 776.687 167.843L778.975 168.622C779.753 168.832 780.541 169.018 781.324 169.215C782.896 169.595 784.467 169.997 786.048 170.34L790.863 171.06C791.668 171.163 792.468 171.321 793.277 171.375L795.705 171.523C797.325 171.603 798.944 171.738 800.565 171.756L805.435 171.606C806.247 171.562 807.063 171.583 807.87 171.479L810.292 171.187C816.785 170.562 823.122 168.8 829.173 166.503L833.6 164.596C835.069 163.947 836.432 163.118 837.852 162.375L839.955 161.221C840.648 160.827 841.287 160.359 841.956 159.929C843.278 159.046 844.605 158.167 845.907 157.258C848.338 155.255 850.909 153.368 853.062 151.086L854.73 149.428C855.292 148.879 855.843 148.32 856.326 147.71L859.311 144.111C859.826 143.522 860.248 142.874 860.68 142.231L861.966 140.296L863.229 138.347C863.657 137.702 863.963 136.995 864.331 136.319L866.402 132.2C866.968 130.782 867.499 129.35 868.03 127.92C868.285 127.202 868.575 126.496 868.793 125.769L869.366 123.567C869.725 122.096 870.153 120.64 870.426 119.159C870.835 116.177 871.427 113.219 871.433 110.225L871.528 107.737L871.565 106.494C871.565 106.081 871.52 105.667 871.497 105.253Z" fill="url(#paint10_linear)"/>
<mask id="mask1" mask-type="alpha" maskUnits="userSpaceOnUse" x="-178" y="374" width="262" height="252">
<path d="M-116.902 388.15C-87.3656 388.15 -17.5369 446.21 -17.5369 473.492C-17.5369 500.775 -41.481 522.891 -71.0162 522.891C-100.549 522.891 -140.734 500.775 -140.734 473.492C-140.734 446.21 -100.549 424.093 -71.0162 424.093L-116.902 388.15ZM-6.1855 597.61C-23.6801 504.769 139.696 486.152 62.2728 451.203C-15.1505 416.255 -11.9709 374.757 -71.0162 374.694C-130.085 374.694 -177.974 418.928 -177.974 473.492C-177.974 528.055 11.3091 690.45 -6.1855 597.61Z" fill="white"/>
</mask>
<g mask="url(#mask1)">
<path d="M-116.902 388.15C-87.3656 388.15 -17.5369 446.21 -17.5369 473.492C-17.5369 500.775 -41.481 522.891 -71.0162 522.891C-100.549 522.891 -140.734 500.775 -140.734 473.492C-140.734 446.21 -100.549 424.093 -71.0162 424.093L-116.902 388.15ZM-6.1855 597.61C-23.6801 504.769 139.696 486.152 62.2728 451.203C-15.1505 416.255 -11.9709 374.757 -71.0162 374.694C-130.085 374.694 -177.974 418.928 -177.974 473.492C-177.974 528.055 11.3091 690.45 -6.1855 597.61Z" fill="url(#paint11_linear)"/>
<path fill-rule="evenodd" clip-rule="evenodd" d="M122.556 438.366L95.7476 488.022C88.6021 461.657 55.5558 431.138 26.7818 437.738C-1.99228 444.338 -15.5975 485.56 -8.45203 511.924C-1.30652 538.29 27.8127 554.314 56.5856 547.713C85.3596 541.113 129.7 464.732 122.555 438.366H122.556ZM-71.5707 587.873C-165.254 625.949 -39.7748 417.694 17.771 404.494C75.3191 391.294 133.555 423.341 147.846 476.071C162.064 528.795 117.527 535.996 99.3992 613.565C81.2725 691.135 22.1118 549.795 -71.5707 587.873Z" fill="url(#paint12_linear)"/>
<path fill-rule="evenodd" clip-rule="evenodd" d="M5.16612 475.411L4.77409 470.457C4.59694 468.814 4.20264 467.189 3.90662 465.561C3.73747 464.75 3.6026 463.933 3.39688 463.13L2.66998 460.744L1.92709 458.365L1.55109 457.179L1.07106 456.023L-0.898193 451.428C-2.47771 448.48 -3.9852 445.494 -5.97159 442.762C-9.75007 437.194 -14.0143 431.819 -19.2831 427.254C-19.9369 426.682 -20.5381 426.05 -21.2444 425.531L-23.3405 423.945C-24.7543 422.901 -26.1372 421.808 -27.6973 420.949C-29.2288 420.053 -30.7512 419.131 -32.3432 418.329C-33.9753 417.592 -35.6268 416.888 -37.2921 416.225C-38.1607 415.88 -38.0727 416.088 -37.1938 416.475C-35.7377 417.116 -34.2999 417.785 -32.8816 418.474C-31.4632 419.163 -30.1694 420.052 -28.8356 420.856L-26.8675 422.107C-26.2104 422.517 -25.6297 423.029 -25.0126 423.488L-21.4112 426.34C-20.29 427.367 -19.2054 428.425 -18.1139 429.466C-17.5745 429.992 -17.0167 430.5 -16.4967 431.039L-15.0075 432.721C-14.0314 433.852 -12.9937 434.928 -12.0622 436.085L-9.33749 439.61C-5.8756 444.337 -2.79428 449.375 -0.739319 454.802C0.464172 457.458 1.13048 460.272 1.93394 463.044C2.29283 464.44 2.46542 465.869 2.72144 467.282C2.95459 468.698 3.22089 470.111 3.24031 471.544L3.44374 475.974C3.46317 477.45 3.29518 478.925 3.21404 480.397L3.05058 482.605C3.0083 483.341 2.82086 484.066 2.70999 484.795L1.90424 489.158C1.53394 490.592 1.08476 492.011 0.667603 493.433L0.0161438 495.561L-0.831909 497.628C-1.41707 498.999 -1.93596 500.395 -2.59085 501.736L-4.71211 505.695C-7.76941 510.838 -11.2256 515.864 -15.6338 520.171C-16.1698 520.72 -16.6842 521.289 -17.2419 521.819L-18.9894 523.345C-20.1758 524.34 -21.2935 525.412 -22.561 526.322L-26.3966 529.012C-27.0275 529.473 -27.7041 529.871 -28.3967 530.247L-30.4597 531.395C-33.1581 533.009 -36.1663 534.103 -39.0682 535.339C-40.5768 535.838 -42.1003 536.304 -43.6181 536.771C-44.3804 536.992 -45.1279 537.256 -45.9028 537.436L-48.2401 537.933C-54.4381 539.417 -60.8453 539.756 -67.1702 539.749L-71.9213 539.512L-73.1088 539.45C-73.5031 539.412 -73.8951 539.348 -74.2894 539.297L-76.6461 538.973C-79.8131 538.642 -82.8807 537.841 -85.9666 537.12C-87.5038 536.738 -88.9781 536.171 -90.4834 535.695L-92.7269 534.94C-93.4664 534.667 -94.1727 534.328 -94.8962 534.022C-96.3305 533.387 -97.7775 532.771 -99.189 532.097L-103.266 529.815C-108.552 526.587 -113.558 522.891 -117.712 518.454L-119.317 516.832L-120.765 515.088C-121.71 513.912 -122.717 512.774 -123.594 511.555C-125.263 509.063 -127.008 506.604 -128.293 503.913C-129.787 501.312 -130.739 498.495 -131.789 495.728C-132.246 494.323 -132.567 492.881 -132.946 491.46L-133.483 489.32L-133.811 487.145C-134.015 485.695 -134.241 484.248 -134.41 482.799L-134.583 478.434C-134.6 477.707 -134.663 476.981 -134.64 476.255L-134.515 474.078C-134.417 472.629 -134.384 471.174 -134.236 469.73C-133.498 463.296 -131.8 456.987 -129.189 450.98L-127.012 446.547C-126.201 445.111 -125.287 443.72 -124.411 442.309C-123.577 440.869 -122.484 439.589 -121.466 438.257L-119.904 436.281C-119.379 435.626 -118.757 435.042 -118.182 434.422C-117.174 433.379 -116.166 432.325 -115.12 431.303L-111.743 428.445C-111.167 427.981 -110.627 427.477 -110.019 427.047L-108.192 425.765C-106.959 424.928 -105.778 424.021 -104.504 423.245C-101.909 421.754 -99.405 420.132 -96.6848 418.888C-95.3396 418.245 -94.0516 417.492 -92.6778 416.922L-88.593 415.156C-87.6604 414.743 -88.3667 414.436 -89.3256 414.84C-90.6628 415.403 -92.0057 415.946 -93.359 416.473C-94.6859 417.05 -95.9819 417.701 -97.3077 418.294C-100.003 419.414 -102.484 420.908 -105.081 422.251C-110.054 425.218 -114.959 428.51 -118.927 432.636C-121.122 434.675 -122.901 437.046 -124.731 439.367C-125.633 440.536 -126.356 441.818 -127.16 443.046C-127.941 444.289 -128.741 445.519 -129.345 446.847L-131.266 450.767C-131.848 452.093 -132.305 453.466 -132.822 454.813L-133.569 456.841C-133.817 457.517 -133.958 458.222 -134.154 458.911L-135.254 463.06C-135.573 464.516 -135.768 465.993 -136.025 467.459L-136.385 469.661C-136.478 470.397 -136.496 471.139 -136.554 471.878L-136.829 476.316C-136.815 477.797 -136.73 479.278 -136.674 480.761L-136.571 482.986C-136.497 483.724 -136.368 484.459 -136.266 485.197L-135.581 489.621L-134.433 493.971C-134.226 494.693 -134.056 495.426 -133.81 496.137L-132.996 498.251C-130.972 503.946 -127.732 509.217 -124.022 514.095L-121.074 517.654C-120.036 518.798 -118.904 519.87 -117.816 520.973L-116.16 522.605L-114.366 524.108C-113.154 525.095 -111.995 526.138 -110.731 527.064C-108.146 528.861 -105.605 530.721 -102.778 532.197C-100.071 533.851 -97.0986 535.068 -94.1841 536.384C-92.6995 536.983 -91.1577 537.466 -89.6422 538.001L-87.3541 538.778C-86.5769 538.989 -85.7883 539.175 -85.0054 539.372C-83.4339 539.753 -81.8635 540.154 -80.2817 540.496L-75.4666 541.217C-74.662 541.32 -73.8619 541.478 -73.0528 541.532L-70.6241 541.679C-69.0045 541.76 -67.385 541.896 -65.7644 541.913L-60.8944 541.763C-60.0841 541.719 -59.2669 541.74 -58.4612 541.636L-56.0382 541.345C-49.5441 540.719 -43.2078 538.958 -37.1561 536.66L-32.7295 534.754C-31.2609 534.104 -29.8974 533.275 -28.479 532.532L-26.3761 531.378C-25.6812 530.984 -25.0423 530.516 -24.3737 530.086C-23.0513 529.203 -21.7244 528.324 -20.4226 527.415C-17.9916 525.412 -15.4201 523.524 -13.2691 521.243L-11.5993 519.585C-11.037 519.036 -10.4861 518.478 -10.0038 517.867L-7.01849 514.269C-6.50305 513.68 -6.08131 513.031 -5.64929 512.389L-4.36351 510.453L-3.10059 508.504C-2.672 507.86 -2.36684 507.152 -1.99881 506.476L0.0721436 502.357C0.639023 500.939 1.16934 499.507 1.70081 498.078C1.95567 497.36 2.24597 496.653 2.46312 495.926L3.03688 493.725C3.39575 492.254 3.8232 490.797 4.09634 489.317C4.50551 486.335 5.09755 483.376 5.10327 480.382L5.19812 477.894L5.23584 476.652C5.23584 476.238 5.18898 475.824 5.16612 475.411Z" fill="url(#paint13_linear)"/>
</g>
<path d="M589.503 523.148H518.38C497.695 502.651 471.259 482.094 427.402 469.239C324.145 438.97 610.84 462.68 595.301 334.641C579.762 206.601 756.915 450.087 741.229 507.969C739.828 513.143 738.019 518.216 735.817 523.148H681.366C691.288 517.034 698.765 508.908 701.451 499C709.288 470.08 673.321 436.926 642.217 429.791C611.11 422.655 579.539 440.316 571.701 469.239C568.398 481.429 576.589 502.415 589.503 523.148Z" fill="url(#paint14_linear)"/>
</g>
<defs>
<linearGradient id="paint0_linear" x1="1647.52" y1="408.952" x2="1485.7" y2="271.873" gradientUnits="userSpaceOnUse">
<stop stop-color="#00C7FA" stop-opacity="0.32"/>
<stop offset="1" stop-color="#00C7FA" stop-opacity="0"/>
</linearGradient>
<linearGradient id="paint1_linear" x1="1353.3" y1="375.408" x2="1126.92" y2="-144.128" gradientUnits="userSpaceOnUse">
<stop stop-color="#0088FF"/>
<stop offset="1" stop-color="#3525D3"/>
</linearGradient>
<linearGradient id="paint2_linear" x1="1141.29" y1="373.036" x2="1530.46" y2="163.793" gradientUnits="userSpaceOnUse">
<stop stop-color="#00C7FA"/>
<stop offset="1" stop-color="#00C7FA" stop-opacity="0"/>
</linearGradient>
<linearGradient id="paint3_linear" x1="1728.48" y1="-250.285" x2="1339.39" y2="-4.70488" gradientUnits="userSpaceOnUse">
<stop stop-color="#00C7FA"/>
<stop offset="1" stop-color="#00C7FA" stop-opacity="0.48"/>
</linearGradient>
<linearGradient id="paint4_linear" x1="835.219" y1="-202.956" x2="1226.81" y2="13.9155" gradientUnits="userSpaceOnUse">
<stop stop-color="#55FBDC"/>
<stop offset="1" stop-color="#00C7FA" stop-opacity="0.8"/>
</linearGradient>
<linearGradient id="paint5_linear" x1="963.328" y1="335.357" x2="985.601" y2="221.459" gradientUnits="userSpaceOnUse">
<stop stop-color="#0088FF"/>
<stop offset="1" stop-color="#00C7FA"/>
</linearGradient>
<linearGradient id="paint6_linear" x1="956.859" y1="236.759" x2="766.48" y2="276.983" gradientUnits="userSpaceOnUse">
<stop stop-color="#55FBDC" stop-opacity="0.32"/>
<stop offset="1" stop-color="#55FBDC"/>
</linearGradient>
<linearGradient id="paint7_linear" x1="747.589" y1="314.314" x2="2017.02" y2="46.1064" gradientUnits="userSpaceOnUse">
<stop stop-color="#0088FF"/>
<stop offset="1" stop-color="#00C7FA"/>
</linearGradient>
<linearGradient id="paint8_linear" x1="1348.14" y1="462.015" x2="1415.95" y2="447.689" gradientUnits="userSpaceOnUse">
<stop stop-color="#00C7FA"/>
<stop offset="1" stop-color="#00C7FA" stop-opacity="0.24"/>
</linearGradient>
<linearGradient id="paint9_linear" x1="855.694" y1="-207.832" x2="900.046" y2="74.3448" gradientUnits="userSpaceOnUse">
<stop stop-color="white"/>
<stop offset="1" stop-color="#55FBDC" stop-opacity="0.32"/>
</linearGradient>
<linearGradient id="paint10_linear" x1="800.533" y1="44.4934" x2="819.289" y2="168.462" gradientUnits="userSpaceOnUse">
<stop stop-color="#00C7FA"/>
<stop offset="1" stop-color="#55FBDC" stop-opacity="0.32"/>
</linearGradient>
<linearGradient id="paint11_linear" x1="-47.3749" y1="374.694" x2="-47.3749" y2="625.705" gradientUnits="userSpaceOnUse">
<stop stop-color="#00C7FA"/>
<stop offset="1" stop-color="#55FBDC"/>
</linearGradient>
<linearGradient id="paint12_linear" x1="150.602" y1="494.749" x2="-102.211" y2="568.497" gradientUnits="userSpaceOnUse">
<stop stop-color="white" stop-opacity="0.64"/>
<stop offset="1" stop-color="white" stop-opacity="0"/>
</linearGradient>
<linearGradient id="paint13_linear" x1="-65.7964" y1="414.65" x2="-47.0404" y2="538.619" gradientUnits="userSpaceOnUse">
<stop stop-color="#3525D3"/>
<stop offset="1" stop-color="#0088FF" stop-opacity="0.32"/>
</linearGradient>
<linearGradient id="paint14_linear" x1="573.563" y1="297.935" x2="573.563" y2="519.802" gradientUnits="userSpaceOnUse">
<stop stop-color="#F3F5F8"/>
<stop offset="1" stop-color="#F3F5F8" stop-opacity="0"/>
</linearGradient>
<clipPath id="clip0">
<rect width="2807" height="776" fill="white" transform="translate(-698 -150)"/>
</clipPath>
</defs>
</svg>
