<svg width="141" height="141" viewBox="0 0 141 141" fill="none" xmlns="http://www.w3.org/2000/svg">
<g filter="url(#filter0_d)">
<circle cx="70.5" cy="70.5" r="57.5" fill="white"/>
</g>
<circle cx="30.5" cy="30.5" r="17.5" fill="#2446E2"/>
<path d="M26.1977 37.3334V35.5514L29.7977 31.2314C30.4457 30.4514 30.9317 29.7434 31.2557 29.1074C31.4837 28.6514 31.5977 28.1774 31.5977 27.6854C31.5977 26.9054 31.1957 26.5154 30.3917 26.5154C29.8037 26.5154 29.3957 26.7614 29.1677 27.2534C29.0117 27.5534 28.9157 27.8774 28.8797 28.2254L26.3417 28.0454C26.4617 25.5374 27.8417 24.2834 30.4817 24.2834C31.7297 24.2834 32.6837 24.5894 33.3437 25.2014C34.0037 25.8134 34.3337 26.6954 34.3337 27.8474C34.3337 28.8074 34.0457 29.7434 33.4697 30.6554C33.2417 31.0274 33.0437 31.3154 32.8757 31.5194C32.7077 31.7234 32.2517 32.2574 31.5077 33.1214L29.8157 35.0834H34.3157V37.3334H26.1977Z" fill="white"/>
<path fill-rule="evenodd" clip-rule="evenodd" d="M59.8891 53.0001H80.111C81.6999 53.0001 83 54.2368 83 55.7481V57.3759V61.4819V67.2522C83 68.7635 81.6999 70.0001 80.111 70.0001H59.8891C58.3001 70.0001 57 68.7635 57 67.2522V61.4819V57.3759V55.7481C57 54.2364 58.3001 53.0001 59.8891 53.0001ZM79.6605 67.4529C80.2873 67.4529 80.8159 66.9497 80.8159 66.3536L80.8163 61.4819H59.3916V66.3536C59.3916 66.9497 59.9203 67.4529 60.547 67.4529H79.6605ZM59.3209 56.5953V58.0001H80.7452V56.5953C80.7452 55.9995 80.2165 55.4963 79.5898 55.4963H60.4763C59.8496 55.4963 59.3209 55.9995 59.3209 56.5953ZM64.5 74L75.5 74.0001V77.3007H81L70 88L59 77.3007H64.5V74Z" fill="url(#paint0_linear)"/>
<defs>
<filter id="filter0_d" x="0" y="0" width="141" height="141" filterUnits="userSpaceOnUse" color-interpolation-filters="sRGB">
<feFlood flood-opacity="0" result="BackgroundImageFix"/>
<feColorMatrix in="SourceAlpha" type="matrix" values="0 0 0 0 0 0 0 0 0 0 0 0 0 0 0 0 0 0 127 0"/>
<feOffset/>
<feGaussianBlur stdDeviation="6.5"/>
<feColorMatrix type="matrix" values="0 0 0 0 0 0 0 0 0 0 0 0 0 0 0 0 0 0 0.25 0"/>
<feBlend mode="normal" in2="BackgroundImageFix" result="effect1_dropShadow"/>
<feBlend mode="normal" in="SourceGraphic" in2="effect1_dropShadow" result="shape"/>
</filter>
<linearGradient id="paint0_linear" x1="69.7603" y1="88" x2="50.142" y2="60.5575" gradientUnits="userSpaceOnUse">
<stop stop-color="#006DCC"/>
<stop offset="0.3997" stop-color="#338BF8"/>
<stop offset="1" stop-color="#23FAD2"/>
</linearGradient>
</defs>
</svg>
