<svg width="141" height="141" viewBox="0 0 141 141" fill="none" xmlns="http://www.w3.org/2000/svg">
<g filter="url(#filter0_d)">
<circle cx="70.5" cy="70.5" r="57.5" fill="white"/>
</g>
<path fill-rule="evenodd" clip-rule="evenodd" d="M76.3379 57V60.4946C76.3379 60.4946 69.1993 61.5506 64.9664 67.9776C61.5806 73.1185 61.2227 78.7619 61.2227 78.7619C62.3239 77.1326 64.1112 75.0641 66.7583 73.492C71.5942 70.6001 76.2976 71.495 76.2976 71.495V75.1285L85.7698 66.0449L76.3379 57ZM55 82.948C55.0006 84.0244 55.9087 84.8949 57.0318 84.8955L77.3041 84.8961C78.4269 84.8949 79.3346 84.0238 79.3356 82.948L79.3362 75.5921L76.4335 78.3752V82.1134L57.9021 82.1128V63.5231H65.022L67.9251 60.74H57.0318C55.9087 60.7407 55.0006 61.6114 55 62.6878V82.948Z" fill="url(#paint0_linear)"/>
<circle cx="30.5" cy="30.5" r="17.5" fill="#2446E2"/>
<path d="M28.6997 31.6274V29.5034H29.6357C30.8117 29.5034 31.3997 28.9934 31.3997 27.9734C31.3997 27.0014 30.9857 26.5154 30.1577 26.5154C29.3537 26.5154 28.8857 26.9714 28.7537 27.8834L26.3057 27.7034C26.4497 25.4234 27.7817 24.2834 30.3017 24.2834C31.5497 24.2834 32.4977 24.5894 33.1457 25.2014C33.8057 25.8014 34.1357 26.6834 34.1357 27.8474C34.1357 28.5074 34.0337 29.0474 33.8297 29.4674C33.6377 29.8754 33.3077 30.2354 32.8397 30.5474C33.4397 30.9314 33.8537 31.3574 34.0817 31.8254C34.3217 32.2814 34.4417 32.8934 34.4417 33.6614C34.4417 36.2414 33.0737 37.5314 30.3377 37.5314C28.5977 37.5314 27.3797 37.0634 26.6837 36.1274C26.2757 35.5754 26.0477 34.8494 25.9997 33.9494L28.5917 33.6434C28.7117 34.7474 29.2577 35.2994 30.2297 35.2994C30.7097 35.2994 31.0757 35.1554 31.3277 34.8674C31.5797 34.5674 31.7057 34.1414 31.7057 33.5894C31.7057 32.9894 31.5317 32.5154 31.1837 32.1674C30.8477 31.8074 30.3917 31.6274 29.8157 31.6274H28.6997Z" fill="white"/>
<defs>
<filter id="filter0_d" x="0" y="0" width="141" height="141" filterUnits="userSpaceOnUse" color-interpolation-filters="sRGB">
<feFlood flood-opacity="0" result="BackgroundImageFix"/>
<feColorMatrix in="SourceAlpha" type="matrix" values="0 0 0 0 0 0 0 0 0 0 0 0 0 0 0 0 0 0 127 0"/>
<feOffset/>
<feGaussianBlur stdDeviation="6.5"/>
<feColorMatrix type="matrix" values="0 0 0 0 0 0 0 0 0 0 0 0 0 0 0 0 0 0 0.25 0"/>
<feBlend mode="normal" in2="BackgroundImageFix" result="effect1_dropShadow"/>
<feBlend mode="normal" in="SourceGraphic" in2="effect1_dropShadow" result="shape"/>
</filter>
<linearGradient id="paint0_linear" x1="70.1012" y1="84.8961" x2="57.183" y2="58.0649" gradientUnits="userSpaceOnUse">
<stop stop-color="#006DCC"/>
<stop offset="0.3997" stop-color="#338BF8"/>
<stop offset="1" stop-color="#23FAD2"/>
</linearGradient>
</defs>
</svg>
