<svg width="141" height="141" viewBox="0 0 141 141" fill="none" xmlns="http://www.w3.org/2000/svg">
<g filter="url(#filter0_d)">
<circle cx="70.5" cy="70.5" r="57.5" fill="white"/>
</g>
<g clip-path="url(#clip0)">
<path d="M86 67.1557V76.8205C86 78.3545 84.8062 79.6432 83.2477 79.95V82.8034C83.2477 83.4784 82.6508 84 81.9545 84C81.6229 84 81.2913 83.8773 81.026 83.6625L77.1131 80.042H65.275C63.4181 80.042 61.9259 78.692 61.8264 77.0352L63.816 75.1943H64.2139V76.8511C64.2139 77.3727 64.6782 77.833 65.275 77.833H78.1079L80.827 80.3489V77.833H82.5514C83.1151 77.833 83.6125 77.4034 83.6125 76.8511V67.1557C83.6125 66.6341 83.1482 66.1739 82.5514 66.1739H80.4623V63.9341H82.5514C84.4415 63.9648 86 65.4068 86 67.1557ZM56.7198 72.9852V75.8386C56.7198 76.1761 56.8856 76.483 57.1177 76.7284C57.3498 76.9432 57.6814 77.0659 58.013 77.0659C58.3446 77.0659 58.6762 76.9432 58.9415 76.6977L62.8544 73.0773H74.6925C76.6157 73.0773 78.1411 71.6352 78.1411 69.8864V60.1909C78.1411 58.4114 76.5826 57 74.6925 57H57.4493C55.526 57 54.0007 58.4421 54.0007 60.1909V69.8557C53.9675 71.3898 55.1613 72.6784 56.7198 72.9852Z" fill="url(#paint0_linear)"/>
</g>
<circle cx="30.5" cy="30.5" r="17.5" fill="#2446E2"/>
<path d="M31.2377 37.3334V35.1374H26.1797V33.4814L30.1037 24.4814H33.0197L29.3117 32.9414H31.2377V30.0614H33.7037V32.9414H34.8197V35.1374H33.7037V37.3334H31.2377Z" fill="white"/>
<defs>
<filter id="filter0_d" x="0" y="0" width="141" height="141" filterUnits="userSpaceOnUse" color-interpolation-filters="sRGB">
<feFlood flood-opacity="0" result="BackgroundImageFix"/>
<feColorMatrix in="SourceAlpha" type="matrix" values="0 0 0 0 0 0 0 0 0 0 0 0 0 0 0 0 0 0 127 0"/>
<feOffset/>
<feGaussianBlur stdDeviation="6.5"/>
<feColorMatrix type="matrix" values="0 0 0 0 0 0 0 0 0 0 0 0 0 0 0 0 0 0 0.25 0"/>
<feBlend mode="normal" in2="BackgroundImageFix" result="effect1_dropShadow"/>
<feBlend mode="normal" in="SourceGraphic" in2="effect1_dropShadow" result="shape"/>
</filter>
<linearGradient id="paint0_linear" x1="69.705" y1="84" x2="57.7679" y2="57.3596" gradientUnits="userSpaceOnUse">
<stop stop-color="#006DCC"/>
<stop offset="0.3997" stop-color="#338BF8"/>
<stop offset="1" stop-color="#23FAD2"/>
</linearGradient>
<clipPath id="clip0">
<rect width="32" height="27" fill="white" transform="translate(54 57)"/>
</clipPath>
</defs>
</svg>
